<svg xmlns="http://www.w3.org/2000/svg" xmlns:xlink="http://www.w3.org/1999/xlink" width="1199.059" height="367.768" viewBox="0 0 1199.059 367.768">
  <defs>
    <clipPath id="clip-path">
      <path id="Mask" d="M0,0,251.953,367.768h84.955L82.006,0Z" fill="#34d48f"/>
    </clipPath>
  </defs>
  <g id="Group_893_DarkText" data-name="Group 893_DarkText" transform="translate(-823.5 -84)">
    <g id="Group" transform="translate(823.5 84)">
      <path id="D" d="M97.857,269.592H0V0H93.38c22.8,0,43.513,2.725,61.574,8.1s33.81,13.577,46.809,24.381,23.127,24.93,30.068,41.956,10.474,37,10.474,59.347c0,21.676-3.222,41.125-9.577,57.809A111.277,111.277,0,0,1,204,234.351a124.974,124.974,0,0,1-45.69,26.431C140.7,266.628,120.364,269.592,97.857,269.592Zm-34.52-213.3V213.485h30.7c26.347,0,46.683-7.2,60.445-21.391,12.063-12.453,23.225-28,23.225-57.2,0-32.083-12.061-47.663-23.86-58.671C139.678,63,118.01,56.291,89.449,56.291Z" transform="translate(0 14.155)" fill="#34d48f"/>
      <g id="Path_12" data-name="Path 12" transform="translate(199.544)">
        <path id="Mask-2" data-name="Mask" d="M0,0,251.953,367.768h84.955L82.006,0Z" fill="#34d48f"/>
        <g id="Path_12-2" data-name="Path 12" clip-path="url(#clip-path)">
          <path id="Path_12-3" data-name="Path 12" d="M43.063,0l-22.8,93.237L0,63.072Z" transform="translate(141.856 145.035)" fill="rgba(0,0,0,0.44)"/>
        </g>
      </g>
      <path id="Path_2" data-name="Path 2" d="M0,232.593,192.712-37h78.1L82.8,232.593Z" transform="translate(199.544 58.859)" fill="#34d48f"/>
    </g>
    <path id="Path_1587" data-name="Path 1587" d="M87.906-104.328a1.423,1.423,0,0,1-1.61,1.61H27.209a.569.569,0,0,0-.644.644v39.767a.569.569,0,0,0,.644.644H68.586a1.423,1.423,0,0,1,1.61,1.61v6.762a1.423,1.423,0,0,1-1.61,1.61H27.209a.569.569,0,0,0-.644.644V-1.61A1.423,1.423,0,0,1,24.955,0H16.744a1.423,1.423,0,0,1-1.61-1.61V-111.09a1.423,1.423,0,0,1,1.61-1.61H86.3a1.423,1.423,0,0,1,1.61,1.61ZM189.658,0a1.877,1.877,0,0,1-1.932-1.288l-6.44-20.286a.631.631,0,0,0-.644-.483H132.5a.631.631,0,0,0-.644.483l-6.44,20.286A1.877,1.877,0,0,1,123.487,0h-8.694q-1.771,0-1.288-1.771l35.581-109.641a1.877,1.877,0,0,1,1.932-1.288h10.948a1.877,1.877,0,0,1,1.932,1.288L199.64-1.771l.161.644Q199.8,0,198.352,0ZM135.079-32.2a.446.446,0,0,0,.081.563.772.772,0,0,0,.564.242h41.538a.772.772,0,0,0,.563-.242.446.446,0,0,0,.081-.563l-20.93-65.688a.516.516,0,0,0-.483-.322.516.516,0,0,0-.483.322ZM277.242,1.449a42.406,42.406,0,0,1-19.8-4.428,32.241,32.241,0,0,1-13.282-12.558,36.5,36.5,0,0,1-4.75-18.757V-78.568a35.746,35.746,0,0,1,4.75-18.515,32.4,32.4,0,0,1,13.282-12.477,42.406,42.406,0,0,1,19.8-4.427,43.056,43.056,0,0,1,19.8,4.347,32.194,32.194,0,0,1,13.283,12.236,34.579,34.579,0,0,1,4.75,18.193,1.741,1.741,0,0,1-.483,1.288,1.544,1.544,0,0,1-1.127.483l-8.211.483q-1.61,0-1.61-1.449v-.483q0-11.431-7.245-18.273t-19.159-6.843q-11.914,0-19.159,6.923T250.838-78.89v45.08q0,11.27,7.245,18.193t19.159,6.923q11.914,0,19.159-6.842t7.245-18.274v-.322q0-1.449,1.61-1.449l8.211.483q1.61,0,1.61,1.449a35.316,35.316,0,0,1-4.75,18.435A32.028,32.028,0,0,1,297.045-2.9,43.056,43.056,0,0,1,277.242,1.449ZM431.48-112.7a1.423,1.423,0,0,1,1.61,1.61v6.923a1.423,1.423,0,0,1-1.61,1.61H399.924a.569.569,0,0,0-.644.644V-1.61A1.423,1.423,0,0,1,397.67,0h-8.211a1.423,1.423,0,0,1-1.61-1.61v-100.3a.569.569,0,0,0-.644-.644H356.937a1.423,1.423,0,0,1-1.61-1.61v-6.923a1.423,1.423,0,0,1,1.61-1.61ZM506.506,1.288a41.889,41.889,0,0,1-20.125-4.669A32.983,32.983,0,0,1,472.938-16.5a39.255,39.255,0,0,1-4.749-19.562V-76.636A39.255,39.255,0,0,1,472.938-96.2a32.983,32.983,0,0,1,13.444-13.121,41.889,41.889,0,0,1,20.125-4.669,42.364,42.364,0,0,1,20.205,4.669A32.861,32.861,0,0,1,540.236-96.2a39.255,39.255,0,0,1,4.749,19.562v40.572A39.255,39.255,0,0,1,540.236-16.5,32.861,32.861,0,0,1,526.711-3.381,42.364,42.364,0,0,1,506.506,1.288Zm0-9.821q12.236,0,19.642-7.406t7.406-19.642V-76.8q0-12.236-7.406-19.722t-19.642-7.487q-12.075,0-19.481,7.487T479.619-76.8v41.216q0,12.236,7.406,19.642T506.506-8.533ZM661.871,0a1.891,1.891,0,0,1-1.932-1.127l-23.667-49.91a.631.631,0,0,0-.644-.483h-27.37a.569.569,0,0,0-.644.644V-1.61A1.423,1.423,0,0,1,606,0h-8.211a1.423,1.423,0,0,1-1.61-1.61V-111.09a1.423,1.423,0,0,1,1.61-1.61h41.7q13.846,0,22.379,8.613t8.533,22.46q0,11.27-6.118,19.159A27.579,27.579,0,0,1,647.7-52.325q-.644.322-.322.805l24.15,49.588a1.792,1.792,0,0,1,.161.8Q671.692,0,670.4,0ZM608.258-102.718a.569.569,0,0,0-.644.644v40.733a.569.569,0,0,0,.644.644H638.2q9.338,0,15.134-5.8t5.8-15.134q0-9.338-5.8-15.215T638.2-102.718Z" transform="translate(1350.867 289.143)" fill="#0d1c30"/>
  </g>
</svg>
