<svg xmlns="http://www.w3.org/2000/svg" width="278.886" height="39.146" viewBox="0 0 278.886 39.146">
  <g id="Main_Logo" data-name="Main Logo" transform="translate(139.443 19.573)">
    <g id="Group_6" data-name="Group 6" transform="translate(-139.443 -19.573)">
      <g id="Group_5" data-name="Group 5">
        <path id="Path_14" data-name="Path 14" d="M1122.592,44.843V20.453a.236.236,0,0,1,.211-.253h5.109a.27.27,0,0,1,.253.253V42.188a1.99,1.99,0,0,0,1.939,1.939h6.036a1.97,1.97,0,0,0,1.981-1.939v-4.73a1.988,1.988,0,0,0-1.981-2.023h-5.278c-.127,0-.211-.042-.211-.211V30.755c0-.126.084-.3.211-.3h8.481a4.319,4.319,0,0,1,4.342,4.384v10a4.291,4.291,0,0,1-4.342,4.258h-12.486A4.291,4.291,0,0,1,1122.592,44.843Z" transform="translate(-1034.244 -20.2)" fill="#00b1e1"/>
        <path id="Path_15" data-name="Path 15" d="M1393.5,160.662V146.65a4.336,4.336,0,0,1,4.308-4.35h16.542a.27.27,0,0,1,.253.253v14.054a4.3,4.3,0,0,1-4.351,4.3h-16.49a.245.245,0,0,1-.262-.245Zm13.506-4.688a1.981,1.981,0,0,0,1.982-1.981v-6.458a.236.236,0,0,0-.211-.253h-7.723a1.981,1.981,0,0,0-1.981,1.981v6.458a.27.27,0,0,0,.253.253Z" transform="translate(-1282.313 -132.006)" fill="#00b1e1"/>
        <path id="Path_16" data-name="Path 16" d="M1664,160.662V146.65a4.336,4.336,0,0,1,4.308-4.35h16.541a.27.27,0,0,1,.253.253v14.054a4.3,4.3,0,0,1-4.342,4.3h-16.508a.245.245,0,0,1-.253-.245Zm13.506-4.688a1.981,1.981,0,0,0,1.981-1.981v-6.458a.236.236,0,0,0-.21-.253h-7.723a1.981,1.981,0,0,0-1.981,1.981v6.458a.27.27,0,0,0,.253.253Z" transform="translate(-1530.007 -132.006)" fill="#00b1e1"/>
        <path id="Path_17" data-name="Path 17" d="M1946.176,44.422V48.89c0,.126-.042.211-.211.211h-7.259a4.308,4.308,0,0,1-4.309-4.35v-24.3a.27.27,0,0,1,.253-.253h5.109a.236.236,0,0,1,.211.253V27.8c0,.169.126.211.295.211h5.025a.312.312,0,0,1,.295.3V32.77c0,.126-.169.211-.295.211h-5.025a.286.286,0,0,0-.295.253v8.954a1.953,1.953,0,0,0,2.023,1.939h3.963C1946.134,44.127,1946.176,44.3,1946.176,44.422Z" transform="translate(-1777.608 -20.2)" fill="#00b1e1"/>
        <g id="Group_4" data-name="Group 4" transform="translate(176.29 10.286)">
          <path id="Path_18" data-name="Path 18" d="M2165.7,157.246v-11.1a3.734,3.734,0,0,1,3.752-3.752h13.59a3.76,3.76,0,0,1,3.751,3.752v4.73c0,.126-.126.211-.3.211h-5.024a.236.236,0,0,1-.253-.211v-1.518a2.023,2.023,0,0,0-2.022-2.023h-5.911a2.023,2.023,0,0,0-2.022,2.023v4.721a2.015,2.015,0,0,0,2.022,1.981h13.211c.169,0,.3.084.3.253V160.8c0,.126-.126.211-.3.211h-17.038a3.71,3.71,0,0,1-3.76-3.76Z" transform="translate(-2165.696 -142.383)" fill="#00b1e1"/>
          <path id="Path_19" data-name="Path 19" d="M2436.2,156.741V146.7a4.3,4.3,0,0,1,4.351-4.3h12.493a4.263,4.263,0,0,1,4.267,4.3v14.139c0,.126-.042.169-.126.169h-5.152c-.084,0-.337-.042-.337-.169V149.313a1.956,1.956,0,0,0-1.855-1.981h-6.037a1.981,1.981,0,0,0-1.982,1.981v4.772a1.918,1.918,0,0,0,1.982,1.939h5.277c.127,0,.169.126.169.3v4.519c0,.126-.042.169-.169.169h-8.541A4.32,4.32,0,0,1,2436.2,156.741Z" transform="translate(-2413.394 -142.383)" fill="#00b1e1"/>
          <path id="Path_20" data-name="Path 20" d="M2706.6,160.754V142.526c0-.084.043-.126.085-.126h23.5a4.309,4.309,0,0,1,4.309,4.35v14a.224.224,0,0,1-.254.253h-5.067a.244.244,0,0,1-.253-.253v-11.4a1.982,1.982,0,0,0-1.99-1.981h-3.5a.093.093,0,0,0-.084.084v13.3a.244.244,0,0,1-.253.253h-5.109a.245.245,0,0,1-.253-.253v-11.4a1.981,1.981,0,0,0-1.981-1.981h-3.5a.093.093,0,0,0-.085.084v13.3a.223.223,0,0,1-.252.253h-5.067A.224.224,0,0,1,2706.6,160.754Z" transform="translate(-2660.997 -142.383)" fill="#00b1e1"/>
          <path id="Path_21" data-name="Path 21" d="M3057.7,170.806V146.5a4.325,4.325,0,0,1,4.308-4.3h12.487a4.317,4.317,0,0,1,4.3,4.3v10a4.317,4.317,0,0,1-4.3,4.3h-8.481a.269.269,0,0,1-.253-.253v-4.468a.269.269,0,0,1,.253-.253h5.235a1.981,1.981,0,0,0,1.981-1.981v-4.73a1.982,1.982,0,0,0-1.981-1.981h-5.994a1.981,1.981,0,0,0-1.981,1.981v21.693a.228.228,0,0,1-.253.253h-5.058a.244.244,0,0,1-.262-.253Z" transform="translate(-2982.495 -142.2)" fill="#00b1e1"/>
        </g>
        <path id="Path_22" data-name="Path 22" d="M74.692,44.843V20.453A.236.236,0,0,1,74.9,20.2h5.109a.27.27,0,0,1,.253.253V42.188A1.99,1.99,0,0,0,82.2,44.127h6.037a1.97,1.97,0,0,0,1.981-1.939v-4.73a1.988,1.988,0,0,0-1.981-2.023H82.963c-.126,0-.211-.042-.211-.211V30.755c0-.126.084-.3.211-.3h8.481a4.319,4.319,0,0,1,4.342,4.384v10A4.291,4.291,0,0,1,91.444,49.1H78.95A4.289,4.289,0,0,1,74.692,44.843Z" transform="translate(-74.692 -20.2)" fill="#00b1e1"/>
        <path id="Path_23" data-name="Path 23" d="M345.6,156.7V142.651a.27.27,0,0,1,.253-.253h5.067a.245.245,0,0,1,.253.253v11.432a1.981,1.981,0,0,0,1.981,1.981h7.419c.042,0,.084-.042.084-.126V142.651a.27.27,0,0,1,.253-.253h5.109a.27.27,0,0,1,.253.253V156.7a4.3,4.3,0,0,1-4.35,4.3H349.908a4.291,4.291,0,0,1-4.308-4.3Z" transform="translate(-322.76 -132.096)" fill="#00b1e1"/>
        <path id="Path_24" data-name="Path 24" d="M611.5,160.452V146.819a4.561,4.561,0,0,1,4.561-4.519h8.018a.472.472,0,0,1,.464.464v4a.481.481,0,0,1-.464.506H619.1a1.981,1.981,0,0,0-1.99,1.99v11.188a.464.464,0,0,1-.464.464h-4.637A.478.478,0,0,1,611.5,160.452Z" transform="translate(-566.242 -132.006)" fill="#00b1e1"/>
        <path id="Path_25" data-name="Path 25" d="M786.783,160.737V142.509a.11.11,0,0,1,.127-.126h16.153a4.336,4.336,0,0,1,4.308,4.35v14a.224.224,0,0,1-.253.253h-5.067a.224.224,0,0,1-.253-.253v-11.4a1.981,1.981,0,0,0-1.981-1.981h-7.335a.093.093,0,0,0-.084.084v13.3a.245.245,0,0,1-.253.253h-5.109a.245.245,0,0,1-.253-.253Z" transform="translate(-726.746 -132.08)" fill="#00b1e1"/>
      </g>
      <path id="Path_26" data-name="Path 26" d="M3332.054,146.868a2.328,2.328,0,1,1-2.319-2.268A2.275,2.275,0,0,1,3332.054,146.868Zm-4.073,0a1.754,1.754,0,0,0,1.771,1.813,1.715,1.715,0,0,0,1.729-1.8,1.751,1.751,0,1,0-3.5-.017Zm1.392,1.189h-.524v-2.268a4.616,4.616,0,0,1,.869-.067,1.34,1.34,0,0,1,.784.169.623.623,0,0,1,.219.5.575.575,0,0,1-.472.523v.025a.662.662,0,0,1,.413.548,1.892,1.892,0,0,0,.169.565h-.564a1.923,1.923,0,0,1-.178-.556c-.067-.27-.177-.354-.472-.354h-.252Zm.017-1.281h.252c.287,0,.523-.1.523-.329s-.152-.346-.489-.346a1.282,1.282,0,0,0-.287.025Z" transform="translate(-3053.168 -134.112)" fill="#00b1e1"/>
    </g>
  </g>
</svg>
