<svg width="128" height="42" viewBox="0 0 128 42" fill="none" xmlns="http://www.w3.org/2000/svg">
<g clip-path="url(#clip0_1_1078)">
<path d="M95.0591 0.000642258H91.4886V17.7094H95.0591V0.000642258Z" fill="black"/>
<path d="M122.939 11.9975H119.4V15.4137L121.757 17.6953H124.114V14.2784H122.939V11.9975Z" fill="black"/>
<path d="M124.644 0.0154377V5.67715H128V2.53433L125.635 0.0154377H124.644Z" fill="black"/>
<path d="M121.691 0.0154377L119.4 2.53433V7.87893L121.691 10.3978L124.115 10.5947V7.04145L122.99 6.89736V3.37053H124.115V0.0154377H121.691Z" fill="black"/>
<path d="M124.644 17.6953H125.759L127.999 15.2889V9.71021L125.635 7.1926L124.644 7.12828V17.6953Z" fill="black"/>
<path d="M83.6476 0.000642258H80.2809V17.7094H83.6476V0.000642258Z" fill="black"/>
<path d="M84.4215 0.0315195V3.36731H85.4114V8.34978H84.4215V11.6843H86.4013L88.7658 9.16797V2.54977L86.4013 0.0315195H84.4215Z" fill="black"/>
<path d="M105.386 14.2932H102.332V17.7088H105.386V14.2932Z" fill="black"/>
<path d="M105.386 0H102.332V3.41684H105.386V0Z" fill="black"/>
<path d="M101.783 0.000642258H98.4174V17.7094H101.783V0.000642258Z" fill="black"/>
<path d="M104.703 6.68316H102.332V10.0402H104.703V6.68316Z" fill="black"/>
<path d="M111.323 0.000642258H107.957V17.7094H111.323V0.000642258Z" fill="black"/>
<path d="M111.861 0.0315195V3.36731H113.155V7.3592H111.861V10.6397H113.152V17.7094H116.618V10.5747L114.922 8.93769L116.618 7.26272V2.54977L114.254 0.0315195H111.861Z" fill="black"/>
<path d="M40.0931 14.2945H37.041V17.7101H40.0931V14.2945Z" fill="black"/>
<path d="M36.4853 0.000642258H33.1186V17.7094H36.4853V0.000642258Z" fill="black"/>
<path d="M5.54015 0.0315195V6.8086H8.59164V2.54977L6.22584 0.0315195H5.54015Z" fill="black"/>
<path d="M5.54015 17.6786H6.22584L8.59164 15.1609V10.0389H5.54015V17.6786Z" fill="black"/>
<path d="M2.28347 0.0315195L0 2.54012V15.17L2.28347 17.6792H5.01141V14.3241H3.58151V3.38597H5.01141V0.0315195H2.28347Z" fill="black"/>
<path d="M11.5415 0V17.7094H15.1307V10.5329H15.5726V7.17717H15.1307V0H11.5415Z" fill="black"/>
<path d="M16.6635 0V7.17717H16.2223V10.5329H16.6635V17.7094H20.2528V0H16.6635Z" fill="black"/>
<path d="M30.1687 14.2945H27.1179V17.7101H30.1687V14.2945Z" fill="black"/>
<path d="M30.1674 0H27.1166V3.41684H30.1674V0Z" fill="black"/>
<path d="M26.5692 0.000642258H23.2032V17.7094H26.5692V0.000642258Z" fill="black"/>
<path d="M29.4875 6.68316H27.1172V10.0402H29.4875V6.68316Z" fill="black"/>
<path d="M42.2789 11.9975V15.4137L44.637 17.6953H46.9931V14.2784H45.8186V11.9975H42.2789Z" fill="black"/>
<path d="M47.5232 0.0154377V5.67715H50.8776V2.53433L48.5125 0.0154377H47.5232Z" fill="black"/>
<path d="M44.5695 0.0154377L42.2789 2.53433V7.87893L44.5695 10.3978L46.9925 10.5947V7.04145L45.8668 6.89736V3.37053H46.9925V0.0154377H44.5695Z" fill="black"/>
<path d="M47.5232 7.12764V17.6946H48.6379L50.8776 15.2883V9.71021L48.5125 7.1926L47.5232 7.12764Z" fill="black"/>
<path d="M60.5221 14.2932H57.47V17.7088H60.5221V14.2932Z" fill="black"/>
<path d="M60.5221 0H57.4694V3.41684H60.5221V0Z" fill="black"/>
<path d="M56.922 0.000642258H53.556V17.7094H56.922V0.000642258Z" fill="black"/>
<path d="M59.8416 6.68316H57.4707V10.0402H59.8416V6.68316Z" fill="black"/>
<path d="M65.0789 0.0154377L62.8211 17.6946H66.3917L66.6934 14.4476H67.3443V11.117H67.0021L67.6756 3.87418L68.3626 11.117H67.9966V14.4476H68.6797L68.9878 17.6946H72.5217L70.2627 0.0154377H65.0789Z" fill="black"/>
<path d="M60.0924 29.8377C59.4113 29.7709 58.7242 29.8719 58.0912 30.1318C57.4581 30.3917 56.8983 30.8026 56.4607 31.3287" fill="#0061E9"/>
<path d="M26.8299 41.1464H24.8648V31.8491H22.7754V30.1664H24.8646V28.1081C24.8646 26.2575 25.9632 24.3909 28.4178 24.3909C28.8112 24.3784 29.2037 24.437 29.5763 24.5639V26.2273C29.312 26.1668 29.0414 26.1387 28.7703 26.1437C28.4992 26.1289 28.2282 26.1739 27.9764 26.2753C27.7246 26.3768 27.4982 26.5323 27.3131 26.7309C27.128 26.9295 26.9888 27.1663 26.9053 27.4246C26.8217 27.6829 26.7959 27.9564 26.8297 28.2258V30.1664H29.5531V31.8491H26.8297L26.8299 41.1464Z" fill="#0061E9"/>
<path d="M36.5075 24.4008C36.2464 24.4029 35.9919 24.4821 35.7757 24.6285C35.5596 24.7749 35.3915 24.9818 35.2926 25.2234C35.1937 25.465 35.1684 25.7304 35.2199 25.9863C35.2713 26.2422 35.3973 26.4772 35.5818 26.6617C35.7664 26.8463 36.0014 26.9722 36.2573 27.0237C36.5132 27.0751 36.7786 27.0498 37.0202 26.9509C37.2618 26.852 37.4687 26.684 37.6151 26.4678C37.7614 26.2517 37.8407 25.9971 37.8428 25.7361C37.844 25.5604 37.8103 25.3862 37.7436 25.2237C37.6769 25.0611 37.5786 24.9134 37.4544 24.7892C37.3301 24.665 37.1824 24.5667 37.0199 24.5C36.8573 24.4333 36.6832 24.3996 36.5075 24.4008Z" fill="#0061E9"/>
<path d="M44.7241 31.849H42.5641V30.167H44.7241V26.5977H46.6184V30.167H49.0601V31.849H46.6184V37.8748C46.6184 39.0391 47.1684 39.5813 48.3481 39.5813C48.5865 39.5782 48.8245 39.558 49.0601 39.5209V41.0948C48.6209 41.211 48.1681 41.2676 47.7138 41.2634C45.842 41.2634 44.7241 40.1197 44.7241 38.2029V31.849Z" fill="#0061E9"/>
<path d="M60.0924 29.8377C59.4113 29.7709 58.7242 29.8719 58.0912 30.1318C57.4581 30.3917 56.8983 30.8026 56.4607 31.3287L56.4607 30.1664H54.6146V41.1464H56.5083V34.7758C56.5083 32.7979 57.6018 31.5198 59.2941 31.5198C61.117 31.5198 62.0806 32.5567 62.0806 34.5179V41.1464H63.9742V34.1422C63.9742 31.4863 62.4871 29.8377 60.0924 29.8377Z" fill="#0061E9"/>
<path d="M60.0924 29.8377C59.4113 29.7709 58.7242 29.8719 58.0912 30.1318C57.4581 30.3917 56.8983 30.8026 56.4607 31.3287" fill="#0061E9"/>
<path d="M89.2318 34.9518L87.4012 34.553C87.0191 34.5219 86.6624 34.3494 86.4007 34.0693C86.139 33.7892 85.9912 33.4215 85.9861 33.0382C85.9861 32.2226 86.7477 31.3787 88.0213 31.3787C88.5826 31.3365 89.1403 31.4977 89.5926 31.8327C90.0449 32.1677 90.3616 32.6543 90.4849 33.2035L92.1309 32.5886C91.9096 31.7903 91.0535 29.8137 88.0213 29.8137C85.9295 29.8137 84.1626 31.3761 84.1626 33.2267C84.1626 34.7556 85.1699 35.8838 86.8564 36.2428L88.7822 36.6654C89.7857 36.8911 90.3614 37.4778 90.3614 38.2741C90.3614 39.073 89.7104 39.933 88.2786 39.933C87.6453 39.9954 87.0116 39.8187 86.502 39.4376C85.9924 39.0565 85.6439 38.4985 85.5249 37.8734L83.8313 38.4709C84.0545 39.5869 85.2187 41.4986 88.2561 41.4986C90.838 41.4986 92.2312 39.7767 92.2312 38.157C92.2312 36.5123 91.166 35.3744 89.2318 34.9518Z" fill="#0061E9"/>
<path d="M88.2561 41.4986C85.2187 41.4986 84.0545 39.5869 83.8313 38.4709L85.5249 37.8734C85.6439 38.4985 85.9924 39.0565 86.502 39.4376C87.0116 39.8187 87.6453 39.9954 88.2786 39.933C89.7091 39.933 90.3614 39.0736 90.3614 38.2741C90.3614 37.4778 89.7857 36.8911 88.7822 36.6654L86.8564 36.2428C85.1698 35.8826 84.1626 34.7556 84.1626 33.2267C84.1626 31.3761 85.9295 29.8137 88.0213 29.8137C91.0535 29.8137 91.9096 31.7903 92.1309 32.5886L90.4849 33.2035C90.3616 32.6543 90.0449 32.1677 89.5926 31.8327C89.1403 31.4977 88.5826 31.3365 88.0213 31.3787C86.7477 31.3787 85.9861 32.2226 85.9861 33.0382C85.9912 33.4215 86.139 33.7892 86.4007 34.0693C86.6624 34.3494 87.0191 34.5219 87.4012 34.553L89.2318 34.9518C91.166 35.3744 92.2312 36.5123 92.2312 38.157C92.2312 39.7767 90.838 41.4986 88.2561 41.4986Z" fill="#0061E9"/>
<path d="M102.216 34.9518L100.385 34.553C100.003 34.5219 99.6463 34.3494 99.3846 34.0693C99.1229 33.7892 98.9751 33.4215 98.97 33.0382C98.97 32.2226 99.7316 31.3787 101.005 31.3787C101.567 31.3365 102.124 31.4977 102.577 31.8327C103.029 32.1677 103.346 32.6543 103.469 33.2035L105.115 32.5886C104.894 31.7903 104.037 29.8137 101.005 29.8137C98.9141 29.8137 97.1465 31.3761 97.1465 33.2267C97.1465 34.7556 98.1538 35.8838 99.8403 36.2428L101.766 36.6654C102.77 36.8911 103.345 37.4778 103.345 38.2741C103.345 39.073 102.694 39.933 101.263 39.933C100.629 39.9954 99.9954 39.8187 99.4857 39.4376C98.976 39.0565 98.6273 38.4985 98.5082 37.8734L96.8152 38.4709C97.0384 39.5869 98.2027 41.4986 101.24 41.4986C103.822 41.4986 105.215 39.7767 105.215 38.157C105.215 36.5123 104.15 35.3744 102.216 34.9518Z" fill="#0061E9"/>
<path d="M34.1574 31.8489V30.1669H37.454V41.1462H35.5835V31.8489H34.1574Z" fill="#0061E9"/>
<path d="M73.9988 29.8146C73.3433 29.8175 72.695 29.9518 72.0923 30.2096C71.0591 30.675 70.1891 31.4392 69.5946 32.4038C69 33.3684 68.708 34.489 68.7565 35.6211C68.7565 39.6593 71.6201 41.4983 74.2812 41.4983C75.4647 41.5201 76.6204 41.138 77.5578 40.4151C78.0379 40.0368 78.4421 39.571 78.7491 39.0424L78.1682 38.7691L77.2098 38.3214C76.9086 38.8209 76.4765 39.2286 75.9603 39.5002C75.4441 39.7719 74.8635 39.8972 74.2812 39.8625C73.7219 39.8621 73.1704 39.7319 72.6699 39.4824C72.0789 39.1831 71.5832 38.7249 71.2385 38.1592C70.8938 37.5935 70.7139 36.9428 70.719 36.2804V36.2135L70.7215 36.1222H79.2386C79.2574 35.9399 79.2658 35.7567 79.2636 35.5735C79.2636 32.0241 77.2478 29.8146 73.9988 29.8146ZM70.7814 34.653L70.7936 34.4838C70.8391 33.6598 71.2 32.8848 71.8014 32.3196C72.4028 31.7544 73.1986 31.4422 74.0239 31.4478C74.4419 31.4143 74.8622 31.4683 75.2581 31.6065C75.654 31.7447 76.0168 31.964 76.3231 32.2503C76.6294 32.5367 76.8726 32.8838 77.0372 33.2695C77.2017 33.6552 77.2839 34.071 77.2786 34.4903L77.2851 34.653H70.7814Z" fill="#0061E9"/>
<path d="M58.1646 30.1002C59.1671 29.7547 60.2499 29.716 61.2746 29.9889L58.1646 30.1002Z" fill="#0061E9"/>
</g>
<defs>
<clipPath id="clip0_1_1078">
<rect width="128" height="41.4986" fill="white"/>
</clipPath>
</defs>
</svg>
