<svg xmlns="http://www.w3.org/2000/svg" width="309" height="100" viewBox="0 0 309 100" fill="none"><mask id="mask0_1973_7850" style="mask-type:luminance" maskUnits="userSpaceOnUse" x="0" y="0" width="309" height="100"><path d="M308.408 0H0V100H308.408V0Z" fill="white"></path></mask><g mask="url(#mask0_1973_7850)"><path d="M229.039 0.00146484H220.436V42.6746H229.039V0.00146484Z" fill="black"></path><path d="M296.214 28.9106H287.687V37.1427L293.366 42.6407H299.045V34.407H296.214V28.9106Z" fill="black"></path><path d="M300.322 0.0371094V13.6802H308.408V6.10693L302.71 0.0371094H300.322Z" fill="black"></path><path d="M293.207 0.0371094L287.687 6.10693V18.9859L293.207 25.0557L299.048 25.5302V16.9678L296.337 16.6206V8.12194H299.048V0.0371094H293.207Z" fill="black"></path><path d="M300.322 42.6408H303.009L308.406 36.8421V23.399L302.71 17.3322L300.322 17.1772V42.6408Z" fill="black"></path><path d="M201.544 0.00146484H193.432V42.6746H201.544V0.00146484Z" fill="black"></path><path d="M203.408 0.0759277V8.11425H205.793V20.1206H203.408V28.1559H208.178L213.876 22.0922V6.14421L208.178 0.0759277H203.408Z" fill="black"></path><path d="M253.921 34.4426H246.562V42.6733H253.921V34.4426Z" fill="black"></path><path d="M253.921 0H246.562V8.23363H253.921V0Z" fill="black"></path><path d="M245.24 0.00146484H237.131V42.6746H245.24V0.00146484Z" fill="black"></path><path d="M252.275 16.1045H246.562V24.194H252.275V16.1045Z" fill="black"></path><path d="M268.226 0.00146484H260.116V42.6746H268.226V0.00146484Z" fill="black"></path><path d="M269.522 0.0759277V8.11425H272.64V17.7336H269.522V25.6387H272.633V42.6747H280.984V25.482L276.898 21.5373L280.984 17.5011V6.14421L275.288 0.0759277H269.522Z" fill="black"></path><path d="M96.6019 34.4458H89.248V42.6764H96.6019V34.4458Z" fill="black"></path><path d="M87.9092 0.00146484H79.7974V42.6746H87.9092V0.00146484Z" fill="black"></path><path d="M13.3486 0.0759277V16.4068H20.701V6.14421L15.0008 0.0759277H13.3486Z" fill="black"></path><path d="M13.3486 42.6005H15.0008L20.701 36.5335V24.1909H13.3486V42.6005Z" fill="black"></path><path d="M5.50188 0.0759277L0 6.12095V36.5554L5.50188 42.6019H12.0747V34.517H8.62943V8.15921H12.0747V0.0759277H5.50188Z" fill="black"></path><path d="M27.8086 0V42.6747H36.4566V25.3813H37.5213V17.295H36.4566V0H27.8086Z" fill="black"></path><path d="M40.1495 0V17.295H39.0864V25.3813H40.1495V42.6747H48.7977V0H40.1495Z" fill="black"></path><path d="M72.6896 34.4458H65.3389V42.6764H72.6896V34.4458Z" fill="black"></path><path d="M72.6867 0H65.3359V8.23363H72.6867V0Z" fill="black"></path><path d="M64.0169 0.00146484H55.9067V42.6746H64.0169V0.00146484Z" fill="black"></path><path d="M71.0485 16.1045H65.3374V24.194H71.0485V16.1045Z" fill="black"></path><path d="M101.868 28.9106V37.1427L107.55 42.6407H113.227V34.407H110.397V28.9106H101.868Z" fill="black"></path><path d="M114.504 0.0371094V13.6802H122.587V6.10693L116.888 0.0371094H114.504Z" fill="black"></path><path d="M107.387 0.0371094L101.868 6.10693V18.9859L107.387 25.0557L113.225 25.5302V16.9678L110.513 16.6206V8.12194H113.225V0.0371094H107.387Z" fill="black"></path><path d="M114.504 17.1755V42.6389H117.19L122.587 36.8404V23.3988L116.888 17.3321L114.504 17.1755Z" fill="black"></path><path d="M145.824 34.4426H138.47V42.6733H145.824V34.4426Z" fill="black"></path><path d="M145.824 0H138.469V8.23363H145.824V0Z" fill="black"></path><path d="M137.15 0.00146484H129.04V42.6746H137.15V0.00146484Z" fill="black"></path><path d="M144.185 16.1045H138.472V24.194H144.185V16.1045Z" fill="black"></path><path d="M156.804 0.0371094L151.364 42.6389H159.967L160.694 34.8146H162.262V26.7888H161.438L163.06 9.3356L164.716 26.7888H163.834V34.8146H165.48L166.222 42.6389H174.737L169.294 0.0371094H156.804Z" fill="black"></path><path d="M144.789 71.9005C143.148 71.7396 141.492 71.9829 139.967 72.6092C138.442 73.2355 137.093 74.2257 136.039 75.4934" fill="#0061E9"></path><path d="M64.645 99.1513H59.9103V76.7474H54.876V72.6926H59.9098V67.7326C59.9098 63.2732 62.5568 58.7752 68.471 58.7752C69.4189 58.7451 70.3646 58.8863 71.2623 59.1921V63.2004C70.6255 63.0546 69.9735 62.9869 69.3203 62.999C68.6671 62.9633 68.0142 63.0717 67.4075 63.3161C66.8008 63.5607 66.2553 63.9354 65.8093 64.414C65.3633 64.8925 65.0279 65.4632 64.8267 66.0856C64.6253 66.708 64.5631 67.3671 64.6446 68.0163V72.6926H71.2064V76.7474H64.6446L64.645 99.1513Z" fill="#0061E9"></path><path d="M87.9625 58.7991C87.3334 58.8042 86.7202 58.9951 86.1992 59.3478C85.6786 59.7006 85.2735 60.1992 85.0352 60.7814C84.7969 61.3636 84.736 62.0031 84.8601 62.6198C84.9839 63.2364 85.2875 63.8027 85.732 64.2473C86.1768 64.6921 86.743 64.9955 87.3596 65.1196C87.9762 65.2435 88.6157 65.1825 89.1978 64.9442C89.7799 64.7058 90.2784 64.301 90.6312 63.78C90.9837 63.2593 91.1747 62.6458 91.1798 62.0168C91.1827 61.5935 91.1015 61.1737 90.9408 60.7821C90.7801 60.3903 90.5432 60.0344 90.244 59.7351C89.9445 59.4358 89.5886 59.1989 89.1971 59.0382C88.8053 58.8775 88.3858 58.7963 87.9625 58.7991Z" fill="#0061E9"></path><path d="M107.76 76.7472H102.556V72.694H107.76V64.093H112.324V72.694H118.207V76.7472H112.324V91.2677C112.324 94.0733 113.649 95.3799 116.492 95.3799C117.066 95.3724 117.64 95.3237 118.207 95.2343V99.027C117.149 99.307 116.058 99.4434 114.964 99.4332C110.454 99.4332 107.76 96.6773 107.76 92.0583V76.7472Z" fill="#0061E9"></path><path d="M144.789 71.9005C143.148 71.7396 141.492 71.9829 139.967 72.6092C138.442 73.2355 137.093 74.2257 136.038 75.4934V72.6926H131.59V99.1513H136.153V83.8C136.153 79.0338 138.788 75.9539 142.865 75.9539C147.257 75.9539 149.579 78.4526 149.579 83.1785V99.1513H154.142V82.2732C154.142 75.8732 150.559 71.9005 144.789 71.9005Z" fill="#0061E9"></path><path d="M144.789 71.9005C143.148 71.7396 141.492 71.9829 139.967 72.6092C138.442 73.2355 137.093 74.2257 136.039 75.4934" fill="#0061E9"></path><path d="M214.998 84.2239L210.588 83.2629C209.667 83.188 208.808 82.7723 208.177 82.0973C207.547 81.4224 207.19 80.5363 207.178 79.6127C207.178 77.6473 209.013 75.6137 212.082 75.6137C213.434 75.5121 214.778 75.9005 215.868 76.7078C216.958 77.515 217.721 78.6876 218.018 80.011L221.984 78.5293C221.45 76.6056 219.388 71.8425 212.082 71.8425C207.042 71.8425 202.785 75.6075 202.785 80.0669C202.785 83.7511 205.212 86.4698 209.275 87.3349L213.915 88.3532C216.333 88.8971 217.72 90.3109 217.72 92.2297C217.72 94.1549 216.152 96.2272 212.702 96.2272C211.176 96.3776 209.649 95.9518 208.421 95.0334C207.193 94.1151 206.354 92.7705 206.067 91.2642L201.986 92.704C202.524 95.3932 205.329 99.9999 212.648 99.9999C218.869 99.9999 222.225 95.8506 222.225 91.9475C222.225 87.9843 219.659 85.2423 214.998 84.2239Z" fill="#0061E9"></path><path d="M212.648 99.9999C205.329 99.9999 202.524 95.3932 201.986 92.704L206.067 91.2642C206.354 92.7705 207.193 94.1151 208.421 95.0334C209.649 95.9518 211.176 96.3776 212.702 96.2272C216.149 96.2272 217.72 94.1563 217.72 92.2297C217.72 90.3109 216.333 88.8971 213.915 88.3532L209.275 87.3349C205.211 86.4669 202.785 83.7511 202.785 80.0669C202.785 75.6075 207.042 71.8425 212.082 71.8425C219.388 71.8425 221.45 76.6056 221.984 78.5293L218.018 80.011C217.721 78.6876 216.958 77.515 215.868 76.7078C214.778 75.9005 213.434 75.5121 212.082 75.6137C209.013 75.6137 207.178 77.6473 207.178 79.6127C207.19 80.5363 207.547 81.4224 208.177 82.0973C208.808 82.7723 209.667 83.188 210.588 83.2629L214.998 84.2239C219.659 85.2423 222.225 87.9843 222.225 91.9475C222.225 95.8506 218.869 99.9999 212.648 99.9999Z" fill="#0061E9"></path><path d="M246.283 84.2239L241.872 83.2629C240.951 83.188 240.092 82.7723 239.461 82.0973C238.831 81.4224 238.475 80.5363 238.462 79.6127C238.462 77.6473 240.297 75.6137 243.366 75.6137C244.72 75.5121 246.062 75.9005 247.153 76.7078C248.242 77.515 249.006 78.6876 249.302 80.011L253.268 78.5293C252.736 76.6056 250.671 71.8425 243.366 71.8425C238.328 71.8425 234.069 75.6075 234.069 80.0669C234.069 83.7511 236.496 86.4698 240.559 87.3349L245.199 88.3532C247.618 88.8971 249.004 90.3109 249.004 92.2297C249.004 94.1549 247.435 96.2272 243.987 96.2272C242.46 96.3776 240.933 95.9518 239.705 95.0334C238.477 94.1151 237.637 92.7705 237.35 91.2642L233.271 92.704C233.808 95.3932 236.614 99.9999 243.932 99.9999C250.153 99.9999 253.509 95.8506 253.509 91.9475C253.509 87.9843 250.943 85.2423 246.283 84.2239Z" fill="#0061E9"></path><path d="M82.3003 76.747V72.6938H90.2432V99.1509H85.7364V76.747H82.3003Z" fill="#0061E9"></path><path d="M178.296 71.845C176.716 71.852 175.154 72.1756 173.702 72.7968C171.213 73.9183 169.117 75.7598 167.684 78.0842C166.252 80.4086 165.548 83.109 165.665 85.837C165.665 95.5679 172.565 99.9994 178.976 99.9994C181.828 100.052 184.612 99.1312 186.871 97.3892C188.028 96.4776 189.002 95.3552 189.741 94.0814L188.342 93.4228L186.033 92.344C185.307 93.5476 184.266 94.5301 183.022 95.1845C181.778 95.8393 180.379 96.1412 178.976 96.0576C177.629 96.0566 176.3 95.7429 175.094 95.1417C173.67 94.4204 172.476 93.3163 171.645 91.9531C170.815 90.5899 170.381 89.0219 170.393 87.4257V87.2645L170.399 87.0445H190.921C190.966 86.6052 190.986 86.1638 190.981 85.7223C190.981 77.1693 186.124 71.845 178.296 71.845ZM170.544 83.5042L170.573 83.0964C170.683 81.1108 171.552 79.2433 173.001 77.8813C174.45 76.5193 176.368 75.767 178.356 75.7805C179.363 75.6998 180.376 75.8299 181.33 76.1629C182.284 76.496 183.158 77.0244 183.896 77.7143C184.634 78.4045 185.22 79.2409 185.617 80.1703C186.013 81.0997 186.211 82.1017 186.198 83.1121L186.214 83.5042H170.544Z" fill="#0061E9"></path><path d="M140.144 72.5329C142.56 71.7004 145.168 71.6071 147.637 72.2647L140.144 72.5329Z" fill="#0061E9"></path></g></svg>