<svg xmlns="http://www.w3.org/2000/svg" viewBox="0 0 100.65 53.3"><path class="ebc-svg-logo" fill="#111" d="M74.88 0l-.1.26h-48.9l-.1-.26a26.67 26.67 0 0 0 0 53.3l.1-.22h48.9l.09.15A26.63 26.63 0 0 0 74.88 0M40.49 4.67h34.19c11.76 0 21.15 10.13 21.15 22s-9.39 22-21.15 22H26c-11.76 0-21.15-10.13-21.15-22s9.39-22 21.15-22h9.56v25.58a8.69 8.69 0 0 1-8.27 5 8.83 8.83 0 0 1-8.7-7.13h11.1v-4.4H18.56c1.06-2.93 4.59-6.46 8.78-6.46a9.15 9.15 0 0 1 4.85 1.51l2-4.35a13.94 13.94 0 1 0 4.65 20 13.92 13.92 0 0 0 23 0 14.07 14.07 0 0 0 11.51 6.26 13.62 13.62 0 0 0 13.89-12.54H82.4a9 9 0 0 1-9 7.74 9.21 9.21 0 0 1 0-18.42 9 9 0 0 1 9 7.75h4.84a13.68 13.68 0 0 0-13.86-12.62 13.94 13.94 0 0 0-11.51 6.14 13.86 13.86 0 0 0-21.37-1.9V4.67zm.76 21.94a9.1 9.1 0 1 1 9.1 9.1 9.1 9.1 0 0 1-9.1-9.1"/></svg>