<svg xmlns="http://www.w3.org/2000/svg" id="Layer_2" data-name="Layer 2" viewBox="0 0 279.24 279.24"><defs><style>.cls-1{fill:#111;}</style></defs><path class="cls-1" d="M151.2,11.58A139.62,139.62,0,1,0,290.82,151.2,139.62,139.62,0,0,0,151.2,11.58Zm86.53,226.15A122.37,122.37,0,0,1,64.67,64.67,122.37,122.37,0,0,1,237.73,237.73Z" transform="translate(-11.58 -11.58)"></path><rect class="cls-1" x="130.25" y="113.12" width="19.5" height="95.67" rx="4.68"></rect><rect class="cls-1" x="130.25" y="82.68" width="19.5" height="20.82" rx="4.68"></rect><path class="cls-1" d="M221.62,202.29h-6.21a7.23,7.23,0,0,1-7.23-7.23V147.54a5,5,0,0,1,5-5h7.65a4.68,4.68,0,0,0,4.67-4.68V127.71a4.67,4.67,0,0,0-4.67-4.68h-7.65a5,5,0,0,1-5-5V99a4.67,4.67,0,0,0-4.68-4.68H193.36A4.67,4.67,0,0,0,188.68,99v19a5,5,0,0,1-5,5h-4.89a4.67,4.67,0,0,0-4.67,4.68v10.14a4.68,4.68,0,0,0,4.67,4.68h4.89a5,5,0,0,1,5,5v56.7a16.13,16.13,0,0,0,16.13,16.13h16.81a4.67,4.67,0,0,0,4.68-4.67V207A4.68,4.68,0,0,0,221.62,202.29Z" transform="translate(-11.58 -11.58)"></path><path class="cls-1" d="M129.32,68.21H105.81A14.82,14.82,0,0,0,91,83V120a4.49,4.49,0,0,1-4.49,4.49H80.78a4.68,4.68,0,0,0-4.68,4.68v10.15A4.67,4.67,0,0,0,80.78,144H86.5a4.49,4.49,0,0,1,4.49,4.5v67.23a4.68,4.68,0,0,0,4.68,4.68h10.15a4.67,4.67,0,0,0,4.67-4.68V148.46A4.49,4.49,0,0,1,115,144h8a4.67,4.67,0,0,0,4.67-4.67V129.14a4.68,4.68,0,0,0-4.67-4.68h-8a4.49,4.49,0,0,1-4.5-4.49V92.47a4.76,4.76,0,0,1,4.76-4.76h14.07A4.67,4.67,0,0,0,134,83V72.89A4.67,4.67,0,0,0,129.32,68.21Z" transform="translate(-11.58 -11.58)"></path></svg>