<svg xmlns="http://www.w3.org/2000/svg" xmlns:xlink="http://www.w3.org/1999/xlink" id="Layer_1" x="0px" y="0px" viewBox="0 0 540 140" style="enable-background:new 0 0 540 140;" xml:space="preserve"><style type="text/css">	.st0{fill:#FFFFFF;}	.st1{fill:#FE5000;}</style><path id="WHITE_BG" class="st0" d="M478,133.5H51c0,0-44.83-10.92-46-64.17c0-51,46-64.58,46-64.58h423c0,0,58.5,2.41,62,65.25 C533.33,127.83,478,133.5,478,133.5z"></path><g id="TOP_BOTTOM_BARS">	<path id="Orange_BOTTOM" class="st1" d="M49.17,4.77c0,0-12.3,5.88-15.54,8.75H474V4.77H49.17z"></path>	<path id="Orange_TOP" class="st1" d="M49.23,134.22c0,0-12.3-5.88-15.54-8.75h440.36v8.75H49.23z"></path></g><circle id="Orange_Dot" class="st1" cx="471.5" cy="69.5" r="64.75"></circle><path id="Black_BG" d="M420.75,118.5H25.25c0,0-19.5-13.17-21-48c-0.5-34.75,23-52,23-52h393.5c0,0-21,17.5-21,52 S420.75,118.5,420.75,118.5z"></path><g id="SF">	<path class="st0" d="M416.01,84.72h40.65c2.72,0,4.32-1.79,4.32-5.08c0-3.29-1.69-5.08-4.32-5.08h-29.29  c-7.79,0-13.71-6.11-13.71-14.38c0-7.99,5.63-14.48,13.71-14.48h40.74v9.4h-40.74c-2.72,0-4.32,1.88-4.32,5.08  c0,3.29,1.69,4.98,4.32,4.98h29.29c7.88,0,13.71,6.2,13.71,14.48s-5.73,14.47-13.71,14.47h-40.65V84.72z"></path>	<path class="st0" d="M474.58,45.71h51.54v9.4h-42.15v10.06h39.61v9.4h-39.61v19.55h-9.39V45.71z"></path></g><g id="FITNESS">	<path class="st0" d="M36.07,45.71H87.6v9.4H45.45v10.06h39.61v9.4H45.45v19.55h-9.39V45.71z"></path>	<path class="st0" d="M92.2,45.71h9.39v48.41H92.2V45.71z"></path>	<path class="st0" d="M127.22,55.11H104.5v-9.4h54.82v9.4H136.6v39.01h-9.39V55.11z"></path>	<path class="st0" d="M163.26,45.71h9.39l32.76,35.06V45.71h9.39v48.41h-9.39l-32.76-35.25v35.25h-9.39V45.71z"></path>	<path class="st0" d="M219.87,45.71h51.54v9.4h-42.15v10.06h39.52v9.4h-39.52v10.15h42.15v9.4h-51.54V45.71z"></path>	<path class="st0" d="M276.19,84.72h40.65c2.72,0,4.32-1.79,4.32-5.08c0-3.29-1.69-5.08-4.32-5.08h-29.29  c-7.79,0-13.71-6.11-13.71-14.38c0-7.99,5.63-14.48,13.71-14.48h40.74v9.4h-40.74c-2.72,0-4.32,1.88-4.32,5.08  c0,3.29,1.69,4.98,4.32,4.98h29.29c7.88,0,13.71,6.2,13.71,14.48s-5.73,14.47-13.71,14.47h-40.65V84.72z"></path>	<path class="st0" d="M332.04,84.72h40.65c2.72,0,4.32-1.79,4.32-5.08c0-3.29-1.69-5.08-4.32-5.08H343.4  c-7.79,0-13.71-6.11-13.71-14.38c0-7.99,5.63-14.48,13.71-14.48h40.74v9.4H343.4c-2.72,0-4.32,1.88-4.32,5.08  c0,3.29,1.69,4.98,4.32,4.98h29.29c7.89,0,13.71,6.2,13.71,14.48s-5.73,14.47-13.71,14.47h-40.65V84.72z"></path></g><g id="_xAE_">	<g>		<path class="st0" d="M491.54,90.74c0-1.99,1.58-3.58,3.57-3.58c1.98,0,3.56,1.59,3.56,3.58c0,1.97-1.58,3.56-3.56,3.56   C493.11,94.3,491.54,92.71,491.54,90.74z M497.82,90.74c0-1.6-1.19-2.74-2.72-2.74c-1.56,0-2.72,1.13-2.72,2.74   c0,1.58,1.16,2.72,2.72,2.72C496.63,93.46,497.82,92.32,497.82,90.74z M496.81,92.55h-0.9l-0.83-1.57h-0.58v1.57h-0.83v-3.71h1.8   c0.85,0,1.44,0.15,1.44,1.13c0,0.68-0.35,0.96-1.01,1.01L496.81,92.55z M495.5,90.42c0.41,0,0.65-0.09,0.65-0.56   c0-0.38-0.48-0.38-0.84-0.38h-0.8v0.94H495.5z"></path>	</g></g></svg>