<svg xmlns="http://www.w3.org/2000/svg" width="2679" height="765" viewBox="0 0 2679 765" fill="none"><path d="M597.4 338.9L365.1 106.3C362.6 103.8 359.7 101.8 356.5 100.5C353.3 99.2 349.8 98.5 346.3 98.5C342.8 98.5 339.3 99.2 336.1 100.5C332.9 101.8 329.9 103.8 327.5 106.3L95.1004 338.9C90.1004 343.9 87.4004 350.7 87.4004 357.8C87.4004 364.9 90.2004 371.6 95.1004 376.7L211 492.7L230.4 472.7L115.4 357.4L346 125.4L577.7 356.9L462.1 472.5L481.8 492.3L597.4 376.6C602.4 371.6 605.1 364.8 605.1 357.7C605.1 350.6 602.3 343.9 597.4 338.8" fill="black"></path><path d="M364.601 426.1L400.701 392.5C408.201 385.4 414.201 377 418.301 367.5C422.401 358.1 424.601 347.9 424.701 337.6C424.701 327.3 422.801 317.1 418.801 307.6C414.801 298.1 409.001 289.5 401.601 282.3L382.501 301.4C387.301 306.2 391.201 311.9 393.801 318.1C396.401 324.4 397.801 331.1 397.801 337.9C397.801 344.7 396.501 351.4 393.901 357.7C391.301 364 387.501 369.7 382.701 374.5L291.901 462.4C284.401 469.5 278.301 478 274.201 487.4C270.101 496.8 267.901 507 267.801 517.3C267.801 527.6 269.701 537.8 273.701 547.4C277.701 556.9 283.601 565.5 291.001 572.7L346.201 627.5L365.101 608.6L309.501 554.7C304.601 549.8 300.601 544 297.901 537.6C295.201 531.2 293.801 524.3 293.801 517.4C293.801 510.5 295.101 503.6 297.801 497.2C300.401 490.8 304.301 485 309.201 480L347.301 441.1C354.401 448.1 375.301 469.1 384.001 477.8C390.301 484.4 394.601 492.6 396.401 501.6H335.101V523.9H397.201C396.001 535.4 391.101 546.3 383.201 554.7L359.501 575.2L379.201 594.9L401.301 572.4C408.701 565.1 414.501 556.5 418.501 547C422.501 537.5 424.601 527.3 424.601 516.9C424.601 495.3 418.301 478.9 399.201 459.8L364.501 425.9L364.601 426.1ZM291.001 393.5C276.401 378.6 268.201 358.7 268.101 337.9C268.101 327.6 270.101 317.4 274.101 307.9C278.101 298.4 283.901 289.7 291.201 282.5L310.301 301.6C302.201 309.6 296.901 320.1 295.401 331.3H357.601V353.6H296.301C296.601 358 297.701 362.3 299.701 366.3C301.701 370.3 304.401 373.8 307.701 376.7C318.301 387.3 333.001 402.6 333.001 402.6L315.801 418.2L291.401 393.7" fill="black"></path><path d="M379.601 243.1C379.601 236.5 377.601 230.1 373.901 224.6C370.201 219.1 365.001 214.9 358.901 212.4C352.801 209.9 346.101 209.2 339.601 210.5C333.101 211.8 327.201 215 322.501 219.6C317.801 224.3 314.701 230.2 313.401 236.6C312.101 243.1 312.801 249.7 315.301 255.8C317.801 261.9 322.101 267.1 327.601 270.7C333.101 274.4 339.501 276.3 346.101 276.3C352.701 276.3 354.801 275.4 358.901 273.8C363.001 272.2 366.601 269.7 369.701 266.6C372.801 263.5 375.301 259.8 376.901 255.8C378.601 251.8 379.401 247.4 379.401 243L379.601 243.1Z" fill="black"></path><path d="M697.501 462.4H669.101V242H697.501V462.4Z" fill="black"></path><path d="M755.501 314.8C755.901 318.5 756.201 322.7 756.401 327.4C756.601 332.1 756.701 336 756.701 339.1H757.601C759.401 335.1 761.701 331.3 764.601 328C767.601 324.6 771.001 321.6 774.801 319C778.701 316.4 783.001 314.4 787.501 312.9C792.101 311.5 797.001 310.7 801.801 310.7C809.601 310.5 817.301 312.2 824.301 315.5C830.501 318.6 835.801 323 840.101 328.4C844.501 334.1 847.601 340.5 849.401 347.4C851.501 355 852.501 362.9 852.401 370.7V462.2H825.401V380.3C825.401 374.6 825.001 368.9 824.101 363.2C823.401 358.2 821.901 353.3 819.601 348.8C817.401 344.7 814.101 341.3 810.101 338.9C805.401 336.2 800.001 334.9 794.601 335.2C789.501 335.2 784.401 336.3 779.801 338.6C775.201 340.9 771.301 344.3 768.301 348.5C761.101 358.8 757.601 371.3 758.301 383.9V462.4H731.301V346.6C731.301 342.6 731.301 337.6 731.001 331.3C731.001 325 730.501 319.6 730.101 314.8H755.501Z" fill="black"></path><path d="M950.1 338.9H914V415.4C913.4 422.1 915 428.8 918.5 434.5C920.3 436.5 922.6 438.1 925.2 439.1C927.7 440.1 930.5 440.5 933.2 440.2C935.9 440.2 938.6 439.9 941.2 439.3C943.9 438.8 946.5 438 949 436.7L949.9 460.7C946.4 462 942.8 463 939.1 463.7C935.1 464.4 931 464.8 926.9 464.8C921.4 465.2 916 464.3 910.9 462.3C905.8 460.3 901.2 457.2 897.5 453.3C890.7 445.7 887.3 434.1 887.3 418.7V338.8H861.2V314.6H887.3V272.2H914V314.6H950.1V338.8V338.9Z" fill="black"></path><path d="M971.1 331.3C971.1 325 970.6 319.6 970.2 314.8H995.8C996.2 318.5 996.5 322.9 996.7 327.7C996.9 332.6 997 336.7 997 339.7H997.9C1001.5 331.3 1007.3 324 1014.7 318.6C1021.9 313.4 1030.6 310.6 1039.5 310.7C1043.1 310.7 1046.7 311 1050.1 312L1048.9 339C1044.9 337.9 1040.7 337.4 1036.5 337.4C1030.9 337.2 1025.3 338.5 1020.3 341C1015.3 343.5 1010.9 347.2 1007.7 351.8C1004.4 356.3 1002.1 361.5 1000.7 366.9C999.1 372.8 998.4 378.8 998.4 384.9V462.5H971.4V346.7C971.4 342.7 971.4 337.7 971.2 331.4L971.1 331.3Z" fill="black"></path><path d="M1146.5 366.8C1146.5 355.8 1143.5 347.6 1137.5 342.3C1130.6 336.7 1121.8 333.9 1112.9 334.4C1105.4 334.4 1098 336 1091.2 339.2C1084.8 342.2 1079 346.4 1074.2 351.5L1059.8 332.8C1066.8 325.8 1075.1 320.3 1084.4 316.6C1094.3 312.6 1104.9 310.6 1115.5 310.7C1124.2 310.5 1132.8 312 1140.9 315.2C1147.7 317.9 1153.7 322.1 1158.6 327.5C1163.3 332.8 1166.8 339.1 1168.9 345.9C1171.2 353.2 1172.4 360.8 1172.3 368.4V433C1172.3 438 1172.3 443.3 1172.8 448.7C1173 453.2 1173.5 457.7 1174.4 462.2H1150C1148.5 455.2 1147.7 448.1 1147.7 441H1146.8C1142.1 448.6 1135.6 454.9 1127.9 459.4C1119.6 463.9 1110.3 466.2 1100.9 465.9C1095.2 465.9 1089.6 465.1 1084.1 463.6C1078.3 462.1 1072.9 459.5 1068.1 456C1063.1 452.3 1059.1 447.5 1056.2 442C1052.9 435.3 1051.4 427.9 1051.7 420.5C1051.2 410.9 1054.3 401.4 1060.3 393.9C1066.2 387.1 1073.7 382 1082.1 378.9C1091.9 375.3 1102.2 373.1 1112.6 372.2C1123.9 371.2 1135.1 370.7 1146.7 370.7L1146.5 366.7V366.8ZM1139.9 392C1133.2 392 1126.4 392.3 1119.1 392.9C1112.5 393.4 1105.9 394.7 1099.6 396.6C1094.2 398.2 1089.2 401.1 1085.1 405C1083.2 406.9 1081.7 409.3 1080.7 411.8C1079.7 414.4 1079.3 417.1 1079.4 419.8C1079.3 423.6 1080.1 427.3 1081.8 430.7C1083.4 433.5 1085.6 436 1088.3 437.8C1091 439.7 1094.1 441 1097.3 441.7C1100.6 442.4 1104 442.8 1107.4 442.8C1112.9 443.1 1118.4 442.2 1123.4 440.1C1128.5 438 1132.9 434.7 1136.5 430.5C1143.5 421.7 1147.1 410.7 1146.7 399.5V391.9H1140L1139.9 392Z" fill="black"></path><path d="M1357.8 331.3C1357.8 325 1357.4 319.6 1356.9 314.8H1382.5C1382.9 318.5 1383.2 322.9 1383.4 327.7C1383.6 332.6 1383.7 336.7 1383.7 339.7H1384.5C1388.1 331.3 1393.9 324 1401.3 318.6C1408.5 313.4 1417.2 310.6 1426.1 310.7C1429.7 310.7 1433.3 311 1436.7 312L1435.5 339C1431.5 337.9 1427.3 337.4 1423.2 337.4C1417.6 337.2 1412 338.5 1407 341C1402 343.5 1397.6 347.2 1394.4 351.8C1391.1 356.3 1388.8 361.5 1387.4 366.9C1385.8 372.8 1385.1 378.8 1385.1 384.9V462.5H1358.1V346.7C1358.1 342.7 1357.9 337.7 1357.9 331.4L1357.8 331.3Z" fill="black"></path><path d="M1481.5 261.5C1481.5 264 1481.2 266.5 1480.3 268.8C1479.4 271.1 1478 273.2 1476.3 275C1474.7 276.7 1472.7 278 1470.5 278.9C1468.3 279.8 1466 280.3 1463.6 280.2C1461.2 280.2 1458.9 279.8 1456.7 278.8C1454.5 277.8 1452.6 276.5 1451 274.7C1449.3 272.9 1448 270.9 1447.1 268.6C1446.2 266.3 1445.8 263.9 1445.9 261.5C1445.8 256.5 1447.6 251.7 1451 248C1452.6 246.3 1454.5 244.9 1456.7 243.9C1458.9 243 1461.2 242.5 1463.6 242.5C1466 242.5 1468.3 242.9 1470.5 243.9C1472.7 244.8 1474.6 246.2 1476.3 248C1478 249.8 1479.4 251.9 1480.3 254.2C1481.2 256.5 1481.7 259 1481.6 261.4L1481.5 261.5ZM1477.2 462.4H1450.2V314.8H1477.2V462.4Z" fill="black"></path><path d="M1584.3 352.2C1581.2 346.7 1576.8 342 1571.4 338.7C1565.8 335.3 1559.3 333.5 1552.7 333.6C1549.7 333.6 1546.6 334 1543.7 334.7C1540.8 335.4 1538 336.5 1535.5 338.1C1533.2 339.6 1531.2 341.7 1529.8 344C1528.2 346.7 1527.5 349.9 1527.6 353C1527.4 355.8 1528.1 358.6 1529.5 361C1530.9 363.5 1532.9 365.5 1535.4 366.8C1542.7 370.6 1550.6 373.4 1558.7 375.1C1564.8 376.7 1570.9 378.6 1576.7 381C1582 383.1 1586.8 386 1591.2 389.6C1595.2 393 1598.5 397.2 1600.7 401.9C1603.1 407.2 1604.3 412.9 1604.1 418.7C1604.4 426.3 1602.8 433.9 1599.6 440.8C1596.7 446.6 1592.6 451.7 1587.4 455.6C1582.2 459.5 1576.3 462.3 1570 463.9C1563.4 465.5 1556.7 466.4 1549.9 466.4C1539.5 466.4 1529.1 464.1 1519.6 459.9C1509.8 455.6 1501.3 448.7 1495 440L1514.2 422.2C1517.9 428.2 1523 433.2 1529 436.9C1535.3 440.8 1542.6 442.9 1550.1 442.8C1553.4 442.8 1556.8 442.5 1560 441.7C1563.1 441 1566 439.8 1568.6 438.1C1571.2 436.5 1573.3 434.2 1574.8 431.6C1576.5 428.4 1577.2 424.9 1577.1 421.3C1577.2 418.2 1576.4 415.1 1574.8 412.4C1573.2 409.7 1570.9 407.5 1568 406.1C1559.6 401.9 1550.7 398.8 1541.4 396.7C1536.9 395.5 1532.4 394 1527.5 392.2C1522.8 390.5 1518.5 388 1514.7 384.9C1510.8 381.7 1507.6 377.7 1505.4 373.2C1502.9 367.8 1501.7 361.9 1501.8 355.9C1501.6 348.8 1503.2 341.8 1506.3 335.5C1509.1 330 1513 325.2 1517.9 321.5C1522.8 317.8 1528.3 315.1 1534.3 313.4C1540.5 311.6 1546.9 310.7 1553.3 310.7C1563.1 310.7 1572.7 312.8 1581.6 316.9C1590.3 320.7 1597.6 327 1602.7 334.9L1584.1 352.1L1584.3 352.2Z" fill="black"></path><path d="M1751.9 387.3V392.2C1751.9 393.9 1751.9 395.5 1751.6 397.2H1643.4C1643.6 403.2 1644.9 409.2 1647.3 414.7C1649.6 420 1652.8 424.8 1656.9 428.8C1660.9 432.8 1665.6 436 1670.8 438.2C1676.1 440.5 1681.8 441.7 1687.6 441.6C1696 441.8 1704.3 439.6 1711.4 435.1C1717.8 431.1 1723.2 425.6 1727.2 419.2L1746.2 435.7C1739.7 445.4 1730.9 453.4 1720.5 458.8C1710.9 463.4 1700.5 465.9 1689.9 466.2C1679.3 466.5 1668.7 464.6 1658.9 460.6C1650.4 457 1642.7 451.7 1636.4 444.9C1629.8 437.8 1624.8 429.5 1621.4 420.4C1617.7 410.2 1615.8 399.5 1615.9 388.6C1615.9 377.9 1617.6 367.2 1621.2 357.1C1624.5 347.9 1629.5 339.5 1636 332.3C1642.3 325.5 1650 320 1658.5 316.3C1667.3 312.4 1676.8 310.5 1686.4 310.5C1695.7 310.4 1704.9 312.2 1713.4 315.8C1721.4 319.2 1728.5 324.4 1734.1 331.1C1740 338.2 1744.5 346.4 1747.2 355.2C1750.4 365.5 1751.9 376.3 1751.7 387.1L1751.9 387.3ZM1724.4 375.5C1724.2 369.9 1723.3 364.4 1721.6 359.1C1720.1 354.3 1717.7 349.8 1714.4 345.9C1711.2 342.1 1707.2 339 1702.6 336.9C1697.4 334.6 1691.8 333.5 1686.1 333.6C1680.5 333.6 1675 334.7 1669.9 336.9C1665 339 1660.5 342.1 1656.7 345.9C1653 349.8 1649.9 354.2 1647.7 359.1C1645.3 364.2 1643.9 369.8 1643.6 375.5H1724.4Z" fill="black"></path><path d="M1802.6 299.4H1829.6V365.2H1901.4V299.4H1928.7V462.3H1901.4V390.1H1829.9V462.3H1802.9L1802.7 299.4H1802.6Z" fill="black"></path><path d="M1958.9 299.4H2060.5V324.7H1986.2V366.1H2056.6V390.5H1986.2V436.5H2064.5V462.3H1958.9V299.4Z" fill="black"></path><path d="M2143.1 299.4H2166.7L2232.8 462.3H2201.6L2187.2 425H2120.7L2106.8 462.3H2076.2L2143 299.4H2143.1ZM2177.8 400.2L2154.1 333.9L2130.1 400.2H2177.8Z" fill="black"></path><path d="M2247.1 299.4H2274.4V436.6H2339.7V462.4H2247.1V299.5V299.4Z" fill="black"></path><path d="M2371.6 324.8H2324.5V299.5H2445.9V324.8H2398.8V462.4H2371.5V324.8H2371.6Z" fill="black"></path><path d="M2464.5 299.4H2491.8V365.2H2563.6V299.4H2590.9V462.3H2563.6V390.1H2491.8V462.3H2464.5V299.4Z" fill="black"></path><path d="M1335.3 357.9C1332.4 348.9 1327.8 340.5 1321.8 333.1C1315.8 325.9 1308.3 320.2 1299.8 316.3C1291.3 312.4 1282 310.5 1272.7 310.6C1262.3 310.4 1252.1 313 1243.1 318.2C1235 322.9 1228.4 329.6 1223.8 337.7H1222.7V314.8H1196.3V516.8H1223.3V440.3H1224.2C1229 448.5 1236.1 455.2 1244.5 459.6C1253 464.1 1262.4 466.5 1272 466.4C1281.8 466.5 1291.5 464.5 1300.3 460.3C1308.6 456.4 1315.9 450.7 1321.8 443.7C1327.8 436.3 1332.4 427.8 1335.3 418.8C1338.7 409 1340.4 398.7 1340.4 388.4C1340.4 378 1338.8 367.7 1335.4 357.9H1335.3ZM1309.7 408.2C1307.9 414.4 1305 420.2 1301.1 425.3C1297.3 430.3 1292.4 434.4 1286.9 437.3C1280.8 440.4 1274 442 1267.2 441.8C1260.7 441.8 1254.2 440.3 1248.4 437.3C1242.8 434.5 1237.9 430.5 1233.9 425.6C1229.8 420.5 1226.6 414.8 1224.6 408.6C1220.2 395.5 1220.2 381.2 1224.6 368.1C1226.7 361.9 1229.8 356.1 1233.9 351C1237.8 346.1 1242.8 342 1248.4 339.2C1254.2 336.2 1260.7 334.7 1267.2 334.7C1274 334.6 1280.8 336.1 1286.9 339.2C1292.5 342 1297.3 346.1 1301.1 351C1305 356.1 1307.9 361.9 1309.7 368.1C1313.6 381.1 1313.6 394.9 1309.7 408V408.2Z" fill="black"></path><g opacity="0.8"><path d="M1617.9 571.7C1624.8 571.7 1630.1 574 1633.9 578.7C1637.7 583.4 1639.6 590 1639.6 598.6C1639.6 607.2 1637.7 613.8 1633.9 618.6C1630.1 623.3 1624.8 625.7 1618 625.7C1611.2 625.7 1611.5 625.1 1608.7 623.8C1605.9 622.5 1603.5 620.6 1601.6 618H1601L1599.3 624.7H1593.6V550.7H1601.5V568.7C1601.5 572.7 1601.4 576.3 1601.1 579.5H1601.5C1605.2 574.3 1610.6 571.7 1617.9 571.7ZM1616.8 578.3C1611.4 578.3 1607.5 579.8 1605.1 582.9C1602.7 586 1601.5 591.2 1601.5 598.5C1601.5 605.8 1602.7 611.1 1605.2 614.2C1607.6 617.4 1611.6 618.9 1617 618.9C1622.4 618.9 1625.5 617.1 1627.9 613.6C1630.3 610.1 1631.5 605 1631.5 598.4C1631.5 591.8 1630.3 586.6 1627.9 583.2C1625.5 579.9 1621.8 578.2 1616.9 578.2L1616.8 578.3Z" fill="black"></path><path d="M1643.7 572.5H1652.2L1663.6 602.2C1666.1 609 1667.7 613.9 1668.3 616.9H1668.7C1669.1 615.3 1670 612.5 1671.3 608.6C1672.6 604.7 1676.9 592.6 1684.2 572.5H1692.7L1670.3 631.9C1668.1 637.8 1665.5 641.9 1662.5 644.4C1659.5 646.9 1655.9 648.1 1651.6 648.1C1647.3 648.1 1646.8 647.8 1644.5 647.3V641C1646.2 641.4 1648.2 641.6 1650.4 641.6C1655.8 641.6 1659.7 638.6 1662 632.5L1664.9 625.1L1643.9 572.7L1643.7 572.5Z" fill="black"></path><g opacity="0.8"><path d="M2590.9 556.2C2590.9 563.3 2585.3 568.9 2578.1 568.9C2570.9 568.9 2565.2 563.3 2565.2 556.2C2565.2 549.1 2570.9 543.7 2578.1 543.7C2585.3 543.7 2590.9 549.3 2590.9 556.2ZM2568.4 556.2C2568.4 561.8 2572.5 566.2 2578.2 566.2C2583.9 566.2 2587.7 561.8 2587.7 556.3C2587.7 550.8 2583.7 546.2 2578.1 546.2C2572.5 546.2 2568.4 550.7 2568.4 556.2ZM2576.1 562.7H2573.2V550.2C2574.3 550 2575.9 549.8 2578 549.8C2580.1 549.8 2581.4 550.2 2582.4 550.7C2583.1 551.2 2583.6 552.2 2583.6 553.4C2583.6 554.6 2582.5 555.8 2581 556.3V556.5C2582.2 557 2582.9 557.9 2583.3 559.6C2583.7 561.5 2583.9 562.3 2584.2 562.7H2581.1C2580.7 562.2 2580.5 561.1 2580.1 559.6C2579.9 558.2 2579.1 557.6 2577.5 557.6H2576.1V562.6V562.7ZM2576.2 555.6H2577.6C2579.2 555.6 2580.5 555.1 2580.5 553.8C2580.5 552.5 2579.7 551.9 2577.8 551.9C2575.9 551.9 2576.5 551.9 2576.2 552.1V555.7V555.6Z" fill="black"></path></g><path d="M1770 664.8C1765.4 662.4 1761 659.1 1757.6 654.8C1754.1 650.5 1751 645.7 1749.2 640.1C1747.1 634.5 1746 628.3 1746 622.1C1746 584.2 1777.7 563.5 1774.2 525.1C1774.2 522.8 1773.7 520.7 1773.1 518.8C1772.4 516.7 1771.4 515 1770.2 513.7C1774.8 516.1 1779.2 519.4 1782.6 523.7C1786.1 528 1789.2 532.8 1791 538.4C1792.8 544 1794.2 550.2 1794.2 556.4C1794.2 589.2 1764.2 613.4 1764.2 648.5C1764.2 683.6 1764.8 654.8 1765.8 657.5C1767 660.1 1768.2 662.6 1770.1 664.8" fill="black"></path><path d="M1884.2 626.1V590.9H1851.5V626.1H1837.5V546.5H1851.5V579.7H1884.2V546.5H1898.1V626.1H1884.2Z" fill="black"></path><path d="M1919.2 602C1919.9 613.7 1926 616.5 1935.5 616.5C1945 616.5 1951.1 615.6 1957.1 614.9L1958.2 624.7C1951.5 625.8 1943.5 627 1931.9 627C1911.5 627 1906.1 613.8 1906.1 595.7C1906.1 577.6 1912.9 564.4 1933.2 564.4C1953.5 564.4 1959.8 575.9 1959.8 594.2C1959.8 612.5 1959.8 597.1 1959.7 598.6C1952.9 600.1 1938.2 601.3 1929.5 601.8L1919 602.2L1919.2 602ZM1931.2 592.7C1935.6 592.6 1942.8 591.8 1947 591.2C1947 590.3 1947.1 589.3 1947.1 588.3C1947.1 579.1 1943.8 573.8 1933.6 573.8C1923.4 573.8 1918.9 581.8 1918.9 592.9L1931.2 592.7Z" fill="black"></path><path d="M1966.9 608C1966.9 597.3 1971.6 590.7 1983.3 588.9C1990 587.8 1997.3 587.4 2004.8 587.3C2004.8 578.9 2000.9 574.7 1991.8 574.7C1982.7 574.7 1977 575.4 1970.6 576.3L1969.5 566.7C1976.2 565.6 1984 564.4 1993.1 564.4C2006.4 564.4 2017.5 567.9 2017.5 583.5V610.6C2017.5 614.6 2017.4 618.1 2017 621.8C2010.2 625.7 2001.2 627 1989.6 627C1972.9 627 1966.7 620.6 1966.7 608M2004.5 595.9C1999.3 596 1992.9 596 1987.8 597.5C1981.5 599.1 1979 600.8 1979 607.9C1979 615 1983.3 617.5 1991 617.5C1998.7 617.5 1999.9 617.4 2003.6 615.6C2003.7 613.2 2004.1 610.4 2004.1 607.3V596H2004.3L2004.5 595.9Z" fill="black"></path><path d="M2028 541.6H2041.1V609.8C2041.1 615.4 2042.6 619.4 2045.5 623.7L2034.1 628.9C2030.1 624.5 2027.8 618.9 2027.8 610.6L2028 541.7V541.6Z" fill="black"></path><path d="M2087.3 626.1C2084.4 626.6 2080.9 627 2078.2 627C2065.8 627 2060.7 621.8 2060.7 610.4V574.9H2050.6V565.3H2060.7V550.2L2073.8 547.9V565H2086.4V574.6H2073.8V609.1C2073.8 614.8 2076.2 616.8 2082.1 616.8C2088 616.8 2085.3 616.8 2086.8 616.7L2087.3 626.2V626.1Z" fill="black"></path><path d="M2148.7 626.1H2135.6V588.6C2135.6 578.8 2133.9 574.7 2121.1 574.7C2108.3 574.7 2112.8 575.6 2109.5 577.1V626.1H2096.4V541.7H2109.5V566.7C2113.9 565.2 2119.1 564.4 2124.6 564.4C2146.1 564.4 2148.4 574.4 2148.4 587.1V626.1H2148.6H2148.7Z" fill="black"></path><path d="M2214 558.2C2209.1 557.3 2203.9 556.7 2198.2 556.7C2176.8 556.7 2176.7 569.1 2176.7 585.7C2176.7 602.3 2176.8 614.7 2198.2 614.7C2219.6 614.7 2208.9 614.2 2214 613.2L2215.5 623.9C2210.4 625.4 2203.2 626.2 2195.6 626.2C2169.3 626.2 2162.9 613.8 2162.9 585.6C2162.9 557.4 2169.3 545 2195.6 545C2221.9 545 2210.4 545.9 2215.5 547.3L2214 558V558.2Z" fill="black"></path><path d="M2223.6 608C2223.6 597.3 2228.3 590.7 2240 588.9C2246.7 587.8 2254 587.4 2261.5 587.3C2261.5 578.9 2257.6 574.7 2248.5 574.7C2239.4 574.7 2233.7 575.4 2227.3 576.3L2226.2 566.7C2232.9 565.6 2240.7 564.4 2249.8 564.4C2263.1 564.4 2274.2 567.9 2274.2 583.5V610.6C2274.2 614.6 2274.1 618.1 2273.7 621.8C2266.9 625.7 2257.9 627 2246.3 627C2229.9 627 2223.4 620.6 2223.4 608M2261.6 595.9C2256.4 596 2250 596 2244.9 597.5C2238.6 599.1 2236.1 600.8 2236.1 607.9C2236.1 615 2240.4 617.5 2248.1 617.5C2255.8 617.5 2257 617.4 2260.7 615.6C2260.8 613.2 2261.2 610.4 2261.2 607.3V596H2261.4L2261.6 595.9Z" fill="black"></path><path d="M2317.6 626.1C2314.7 626.6 2311.2 627 2308.5 627C2296.1 627 2291 621.8 2291 610.4V574.9H2280.9V565.3H2291V550.2L2304.1 547.9V565H2316.7V574.6H2303.7V609.1C2303.7 614.8 2306.1 616.8 2312 616.8C2317.9 616.8 2315.2 616.8 2316.7 616.7L2317.6 626.2V626.1Z" fill="black"></path><path d="M2327 608C2327 597.3 2331.7 590.7 2343.4 588.9C2350.1 587.8 2357.4 587.4 2364.9 587.3C2364.9 578.9 2361 574.7 2351.9 574.7C2342.8 574.7 2337.1 575.4 2330.7 576.3L2329.6 566.7C2336.3 565.6 2344.1 564.4 2353.2 564.4C2366.5 564.4 2377.6 567.9 2377.6 583.5V610.6C2377.6 614.6 2377.5 618.1 2377.1 621.8C2370.3 625.7 2361.3 627 2349.7 627C2333.2 627 2326.8 620.6 2326.8 608M2365 595.9C2359.8 596 2353.4 596 2348.3 597.5C2342 599.1 2339.5 600.8 2339.5 607.9C2339.5 615 2343.8 617.5 2351.5 617.5C2359.2 617.5 2360.4 617.4 2364.1 615.6C2364.2 613.2 2364.6 610.4 2364.6 607.3V596H2364.8L2365 595.9Z" fill="black"></path><path d="M2385.8 541.6H2398.9V609.8C2398.9 615.4 2400.4 619.4 2403.3 623.7L2391.9 628.9C2387.9 624.5 2385.6 618.9 2385.6 610.6V541.7H2385.8V541.6Z" fill="black"></path><path d="M2438.5 605.8L2451.5 565H2464.8L2436.4 648.5H2423.3L2432.5 622.1L2408.1 565H2421.7L2438.5 605.8Z" fill="black"></path><path d="M2497.5 609.2C2497.5 602.4 2491.2 601.7 2485.5 600C2475.7 597.1 2466.4 594.4 2466.4 581.3C2466.4 568.2 2475.6 564.2 2487.9 564.2C2500.2 564.2 2502.4 564.9 2509.4 566.6L2507.9 576.2C2503.2 575.3 2498.1 574.6 2492.8 574.6C2487.5 574.6 2478.9 574.6 2478.9 580.9C2478.9 587.2 2486.2 588.4 2491.3 590.1C2501.8 593.6 2510.1 595.7 2510.1 608.9C2510.1 622.1 2499.6 626.9 2486.3 626.9C2473 626.9 2471.6 626 2465.1 624.5L2466.6 614.7C2471.3 615.6 2478 616.4 2482.9 616.4C2487.8 616.4 2497.4 616.6 2497.4 609.2" fill="black"></path><path d="M2555.1 626.1C2552.2 626.6 2548.7 627 2546 627C2533.6 627 2528.5 621.8 2528.5 610.4V574.9H2518.4V565.3H2528.5V550.2L2541.6 547.9V565H2554.2V574.6H2541.6V609.1C2541.6 614.8 2544 616.8 2549.9 616.8C2555.8 616.8 2553.1 616.8 2554.6 616.7L2555.1 626.2V626.1Z" fill="black"></path><path opacity="0.8" d="M1798.5 662.6C1795.3 661 1792.4 658.7 1790.1 655.9C1787.7 653.1 1785.7 649.7 1784.4 645.9C1783.1 642.1 1782.2 638.1 1782.2 633.7C1782.2 608.2 1805.5 593.7 1801.9 560.9C1806.4 564.9 1810.2 572.2 1812.4 577.5C1813.7 581.3 1814.6 585.3 1814.6 589.7C1814.6 611.7 1794.5 627.7 1794.5 651.5C1794.5 675.3 1794.9 655.8 1795.6 657.6C1796.3 659.5 1797.4 661.1 1798.5 662.5" fill="black"></path><path opacity="0.8" d="M1739.9 619.3C1736.7 617.7 1733.8 615.4 1731.5 612.6C1729.1 609.8 1727.1 606.4 1725.8 602.6C1724.5 598.8 1723.6 594.8 1723.6 590.4C1723.6 564.9 1746.9 550.4 1743.3 517.6C1747.8 521.6 1751.6 528.9 1753.8 534.2C1755.1 538 1756 542 1756 546.4C1756 568.4 1735.9 584.4 1735.9 608.2C1735.9 632 1736.3 612.5 1737 614.3C1737.7 616.1 1738.7 617.8 1739.9 619.2" fill="black"></path></g></svg>