<svg xmlns="http://www.w3.org/2000/svg" width="760" height="195" viewBox="0 0 760 195" fill="none"><path d="M237.899 160.087C228.705 160.087 220.706 158.653 213.9 155.785C207.214 152.917 202.02 148.853 198.318 143.595C194.736 138.336 192.945 132.182 192.945 125.13V119.932C192.945 118.737 193.542 118.139 194.736 118.139H207.811C209.004 118.139 209.601 118.737 209.601 119.932V124.234C209.601 130.329 212.228 135.349 217.482 139.292C222.735 143.236 229.959 145.208 239.153 145.208C247.391 145.208 253.6 143.475 257.779 140.01C261.958 136.544 264.047 132.002 264.047 126.385C264.047 122.68 262.973 119.513 260.824 116.884C258.675 114.255 255.51 111.865 251.331 109.713C247.272 107.443 241.302 104.754 233.422 101.646C224.705 98.3001 217.78 95.2526 212.646 92.5038C207.631 89.7551 203.452 86.1697 200.109 81.7478C196.766 77.2064 195.094 71.5296 195.094 64.7174C195.094 54.4394 198.736 46.3724 206.02 40.5164C213.422 34.6603 223.392 31.7323 235.929 31.7323C244.765 31.7323 252.525 33.2262 259.212 36.214C265.898 39.2018 271.032 43.3846 274.614 48.7627C278.316 54.1407 280.166 60.3553 280.166 67.4064V70.9918C280.166 72.1869 279.569 72.7844 278.375 72.7844H264.943C263.749 72.7844 263.152 72.1869 263.152 70.9918V68.3028C263.152 62.0882 260.645 56.9492 255.63 52.8858C250.734 48.7029 243.929 46.6115 235.213 46.6115C227.81 46.6115 222.079 48.1651 218.019 51.2724C213.96 54.2602 211.93 58.6223 211.93 64.3589C211.93 68.3028 212.945 71.5296 214.974 74.0393C217.004 76.549 219.989 78.8198 223.929 80.8515C227.989 82.7636 234.138 85.2734 242.377 88.3807C250.854 91.727 257.719 94.8343 262.973 97.7026C268.226 100.451 272.585 104.156 276.047 108.817C279.51 113.359 281.241 119.035 281.241 125.847C281.241 136.364 277.36 144.73 269.6 150.945C261.958 157.04 251.391 160.087 237.899 160.087Z" fill="#1F445A"></path><path d="M368.98 101.646C369.457 106.546 369.636 112.044 369.517 118.139C369.517 119.334 368.92 119.932 367.726 119.932H310.594C310.116 119.932 309.877 120.171 309.877 120.649C309.877 124.712 310.235 127.819 310.952 129.971C312.265 134.751 314.892 138.516 318.832 141.264C322.892 143.894 327.966 145.208 334.055 145.208C342.891 145.208 349.697 141.563 354.473 134.273C355.07 133.078 355.846 132.899 356.801 133.735L367.01 140.547C367.845 141.264 368.024 142.041 367.547 142.878C364.204 148.256 359.428 152.499 353.219 155.606C347.13 158.713 340.205 160.267 332.444 160.267C323.727 160.267 316.384 158.355 310.414 154.53C304.444 150.706 299.967 145.268 296.982 138.217C294.116 131.166 292.684 122.621 292.684 112.582C292.684 103.857 293.34 97.2245 294.654 92.6831C296.803 84.4368 301.101 77.9234 307.549 73.143C313.996 68.3625 321.817 65.9723 331.011 65.9723C343.07 65.9723 352.085 69.0198 358.055 75.1149C364.025 81.0905 367.666 89.9343 368.98 101.646ZM331.011 80.8515C325.877 80.8515 321.638 82.1661 318.295 84.7953C314.952 87.3051 312.683 90.7111 311.489 95.0136C310.653 97.6428 310.116 100.989 309.877 105.053C309.877 105.531 310.116 105.77 310.594 105.77H351.607C352.085 105.77 352.324 105.531 352.324 105.053C352.085 101.109 351.727 98.1806 351.249 96.2684C350.055 91.6075 347.667 87.9026 344.085 85.1539C340.622 82.2856 336.264 80.8515 331.011 80.8515Z" fill="#1F445A"></path><path d="M424.703 66.1516C434.494 66.1516 442.255 69.0198 447.986 74.7564C453.717 80.3734 456.583 88.0221 456.583 97.7026V156.861C456.583 158.056 455.986 158.653 454.792 158.653H441.18C439.986 158.653 439.389 158.056 439.389 156.861V101.109C439.389 95.1331 437.658 90.2928 434.195 86.588C430.733 82.8831 426.136 81.0307 420.405 81.0307C414.793 81.0307 410.196 82.8831 406.614 86.588C403.032 90.2928 401.241 95.0733 401.241 100.929V156.861C401.241 158.056 400.644 158.653 399.45 158.653H385.839C384.645 158.653 384.048 158.056 384.048 156.861V69.1991C384.048 68.004 384.645 67.4064 385.839 67.4064H399.45C400.644 67.4064 401.241 68.004 401.241 69.1991V75.6527C401.241 75.8917 401.301 76.071 401.42 76.1905C401.659 76.31 401.838 76.2503 401.958 76.0112C407.092 69.4381 414.674 66.1516 424.703 66.1516Z" fill="#1F445A"></path><path d="M506.013 159.729C498.849 159.729 492.52 158.653 487.028 156.502C481.655 154.351 477.476 151.423 474.491 147.718C471.506 143.894 470.014 139.711 470.014 135.169V133.197C470.014 132.002 470.611 131.405 471.805 131.405H484.7C485.894 131.405 486.491 132.002 486.491 133.197V134.094C486.491 137.44 488.282 140.368 491.864 142.878C495.565 145.388 500.222 146.642 505.833 146.642C511.206 146.642 515.564 145.507 518.908 143.236C522.251 140.846 523.922 137.858 523.922 134.273C523.922 130.807 522.37 128.238 519.266 126.565C516.161 124.772 511.147 122.919 504.222 121.007C497.416 119.095 491.685 117.183 487.028 115.271C482.491 113.239 478.61 110.431 475.387 106.845C472.282 103.14 470.73 98.4196 470.73 92.6831C470.73 84.6758 473.834 78.3417 480.043 73.6808C486.371 68.9003 494.729 66.5101 505.117 66.5101C512.042 66.5101 518.132 67.6455 523.385 69.9162C528.758 72.0674 532.877 75.1149 535.743 79.0588C538.608 83.0027 540.041 87.4246 540.041 92.3245V92.8623C540.041 94.0575 539.444 94.655 538.25 94.655H525.713C524.519 94.655 523.922 94.0575 523.922 92.8623V92.3245C523.922 88.8587 522.191 85.9904 518.729 83.7197C515.385 81.3295 510.788 80.1344 504.938 80.1344C499.684 80.1344 495.386 81.1502 492.043 83.1819C488.819 85.2136 487.207 87.9624 487.207 91.4282C487.207 94.894 488.759 97.5233 491.864 99.3159C495.088 101.109 500.222 103.021 507.266 105.053C514.191 106.965 519.923 108.877 524.46 110.789C529.116 112.582 533.056 115.33 536.28 119.035C539.504 122.621 541.116 127.341 541.116 133.197C541.116 141.324 537.892 147.778 531.445 152.558C525.116 157.339 516.639 159.729 506.013 159.729Z" fill="#1F445A"></path><path d="M564.453 53.0651C561.11 53.0651 558.364 51.9895 556.215 49.8383C554.066 47.6871 552.991 44.9383 552.991 41.592C552.991 38.2457 554.066 35.4969 556.215 33.3457C558.364 31.1945 561.11 30.1189 564.453 30.1189C567.796 30.1189 570.543 31.1945 572.692 33.3457C574.841 35.4969 575.916 38.2457 575.916 41.592C575.916 44.9383 574.841 47.6871 572.692 49.8383C570.543 51.9895 567.796 53.0651 564.453 53.0651ZM557.289 158.474C556.095 158.474 555.498 157.877 555.498 156.681V69.1991C555.498 68.004 556.095 67.4064 557.289 67.4064H570.901C572.095 67.4064 572.692 68.004 572.692 69.1991V156.681C572.692 157.877 572.095 158.474 570.901 158.474H557.289Z" fill="#1F445A"></path><path d="M648.609 69.1991C648.609 68.004 649.206 67.4064 650.4 67.4064H664.011C665.205 67.4064 665.802 68.004 665.802 69.1991V153.992C665.802 168.453 661.683 178.791 653.444 185.006C645.325 191.22 634.4 194.327 620.669 194.327C618.759 194.327 615.774 194.208 611.714 193.969C610.52 193.849 609.923 193.192 609.923 191.997L610.461 179.628C610.461 179.15 610.64 178.731 610.998 178.373C611.356 178.014 611.834 177.895 612.431 178.014C614.102 178.134 616.55 178.193 619.774 178.193C629.923 178.193 637.266 176.281 641.803 172.457C646.34 168.752 648.609 162.418 648.609 153.455V150.228C648.609 149.989 648.489 149.809 648.25 149.69C648.131 149.57 647.952 149.63 647.713 149.869C642.698 155.725 635.355 158.653 625.684 158.653C617.923 158.653 610.878 156.622 604.55 152.558C598.342 148.495 594.043 142.519 591.655 134.632C590.103 129.373 589.327 122.083 589.327 112.761C589.327 102.842 590.222 95.1928 592.013 89.8148C594.282 82.6441 598.282 76.9076 604.013 72.6052C609.864 68.1833 616.729 65.9723 624.609 65.9723C634.4 65.9723 642.101 68.9601 647.713 74.9357C647.952 75.1747 648.131 75.2942 648.25 75.2942C648.489 75.1747 648.609 74.9954 648.609 74.7564V69.1991ZM647.534 129.433C647.892 127.521 648.131 125.489 648.25 123.338C648.489 121.187 648.609 117.601 648.609 112.582C648.609 107.562 648.489 104.037 648.25 102.005C648.131 99.8538 647.833 97.8221 647.355 95.9099C646.4 91.488 644.251 87.9026 640.907 85.1539C637.564 82.2856 633.385 80.8515 628.37 80.8515C623.356 80.8515 619.177 82.2856 615.834 85.1539C612.49 87.9026 610.102 91.488 608.67 95.9099C607.356 99.4952 606.7 105.053 606.7 112.582C606.7 120.828 607.297 126.445 608.491 129.433C609.684 133.855 612.013 137.5 615.475 140.368C619.057 143.117 623.356 144.491 628.37 144.491C633.624 144.491 637.863 143.117 641.086 140.368C644.43 137.5 646.579 133.855 647.534 129.433Z" fill="#1F445A"></path><path d="M719.884 160.087C711.049 160.087 703.347 157.877 696.781 153.455C690.214 148.913 685.617 142.639 682.99 134.632C680.841 128.178 679.766 120.888 679.766 112.761C679.766 104.276 680.781 97.105 682.811 91.2489C685.438 83.3612 690.034 77.2064 696.601 72.7844C703.168 68.243 710.989 65.9723 720.063 65.9723C728.66 65.9723 736.123 68.243 742.451 72.7844C748.898 77.2064 753.495 83.3014 756.241 91.0697C758.39 97.1648 759.465 104.335 759.465 112.582C759.465 120.948 758.39 128.297 756.241 134.632C753.614 142.639 749.077 148.913 742.63 153.455C736.182 157.877 728.6 160.087 719.884 160.087ZM719.884 145.208C724.66 145.208 728.839 143.894 732.421 141.264C736.003 138.516 738.57 134.691 740.122 129.791C741.436 125.25 742.092 119.633 742.092 112.94C742.092 106.248 741.495 100.69 740.302 96.2684C738.749 91.3685 736.182 87.6039 732.6 84.9746C729.018 82.2258 724.66 80.8515 719.526 80.8515C714.631 80.8515 710.392 82.2258 706.81 84.9746C703.228 87.6039 700.661 91.3685 699.109 96.2684C697.795 100.451 697.139 106.009 697.139 112.94C697.139 119.872 697.795 125.489 699.109 129.791C700.542 134.691 703.049 138.516 706.631 141.264C710.332 143.894 714.75 145.208 719.884 145.208Z" fill="#1F445A"></path><path fill-rule="evenodd" clip-rule="evenodd" d="M20.5601 53.0798C22.1513 50.7889 24.2221 47.973 26.7227 44.9177C33.204 36.9985 42.2497 27.8698 52.9792 21.903C63.558 16.02 75.4067 13.3776 88.2819 17.53C101.387 21.7564 116.894 33.4466 133.644 59.1664L146.637 50.7046C128.821 23.3469 110.794 8.4982 93.0413 2.77265C75.0585 -3.02699 58.7253 0.965305 45.4431 8.35167C32.3116 15.6543 21.817 26.4296 14.7233 35.0971C11.1416 39.4734 8.34504 43.4137 6.43368 46.2764C5.47659 47.7098 4.73756 48.8788 4.22927 49.7044C3.97502 50.1173 3.77819 50.4448 3.64038 50.677C3.57146 50.7931 3.51726 50.8854 3.47799 50.9527L3.4303 51.0348L3.41488 51.0616L3.40929 51.0713C3.40708 51.0751 3.40511 51.0786 10.1306 54.9355L3.40511 51.0786L0 57.0161L70.4748 110.034L79.7965 97.6429L20.5601 53.0798Z" fill="#3D898F"></path><path fill-rule="evenodd" clip-rule="evenodd" d="M129.711 119.339L70.4748 74.776L79.7964 62.385L150.271 115.403L146.866 121.34L140.141 117.483C146.866 121.34 146.864 121.344 146.862 121.348L146.856 121.357L146.841 121.384L146.793 121.466C146.754 121.533 146.7 121.626 146.631 121.742C146.493 121.974 146.296 122.302 146.042 122.715C145.534 123.54 144.795 124.709 143.838 126.143C141.926 129.005 139.13 132.946 135.548 137.322C128.454 145.989 117.96 156.765 104.828 164.067C91.546 171.454 75.2128 175.446 57.23 169.646C39.4769 163.921 21.4501 149.072 3.63379 121.714L16.6272 113.253C33.3769 138.972 48.8844 150.662 61.9894 154.889C74.8646 159.041 86.7132 156.399 97.2921 150.516C108.022 144.549 117.067 135.42 123.549 127.501C126.049 124.446 128.12 121.63 129.711 119.339Z" fill="#7EC3C8"></path></svg>