<svg width="324" height="62" viewBox="0 0 324 62" fill="none" xmlns="http://www.w3.org/2000/svg">
<g clip-path="url(#clip0_910_5781)">
<path d="M52.8969 13.3448L52.6927 13.4212H52.5773L52.3998 13.4976L51.5475 13.8966L51.3789 13.99L51.2812 14.0579L51.0859 14.1938C51.0782 14.1925 51.0703 14.1929 51.0628 14.1949C51.0553 14.1969 51.0483 14.2004 51.0424 14.2053C51.0364 14.2102 51.0317 14.2162 51.0285 14.223C51.0253 14.2298 51.0237 14.2372 51.0238 14.2447L50.9439 14.3126L50.864 14.389L50.7841 14.4654L50.6598 14.5928C50.6521 14.5921 50.6444 14.5934 50.6374 14.5965C50.6304 14.5996 50.6244 14.6044 50.6199 14.6104C50.6154 14.6164 50.6127 14.6234 50.6119 14.6307C50.6111 14.6381 50.6123 14.6455 50.6154 14.6522C50.3471 14.9212 50.153 15.2499 50.0506 15.6085C49.9482 15.9672 49.9407 16.3446 50.0287 16.7067C50.1168 17.0688 50.2977 17.4043 50.555 17.6829C50.8124 17.9615 51.1383 18.1745 51.5032 18.3027C51.6896 18.3792 51.8849 18.4216 52.0802 18.481L52.2755 18.5489H52.453L52.6484 18.5999H52.9324L53.323 18.7782H53.7136L54.6014 18.8461H55.2583L56.874 18.9649H57.5398L58.8714 19.0413H59.4396L60.0965 19.1093H60.4783L60.7623 19.1602H61.0642L61.3305 19.2196H61.5347L61.7122 19.2706H61.9075L62.0939 19.3385C62.5535 19.5348 63.0011 19.7559 63.4344 20.0007C64.113 20.4491 64.6416 21.0755 64.9566 21.8045C65.2716 22.5335 65.3596 23.334 65.2099 24.1097C65.0305 25.1994 64.4704 26.1989 63.6209 26.9452C63.1042 27.4112 62.5024 27.7824 61.8454 28.0404C61.2328 28.2866 60.5937 28.4903 59.9545 28.6856C59.6626 28.749 59.3656 28.7888 59.0667 28.8045L58.3033 28.8894H55.2051L54.3173 28.796H54.0599C53.1636 28.6842 52.2862 28.4616 51.4499 28.1338C50.358 27.6838 49.3016 27.1659 48.2096 26.699C48.0838 26.6202 47.9329 26.5863 47.7835 26.6034C47.6341 26.6205 47.4958 26.6874 47.3929 26.7924C47.1355 27.0641 47.0999 27.0386 46.7715 26.7924L48.7955 23.6258L49.2128 23.9314C49.2187 23.9878 49.2187 24.0447 49.2128 24.1012C48.9198 24.6615 48.9287 24.8313 49.5945 25.2473C50.9894 26.1549 52.5583 26.7896 54.2108 27.115C55.9692 27.4639 57.7852 27.4494 59.5372 27.0726C60.5041 26.8805 61.4029 26.4536 62.1472 25.8331C62.6925 25.3579 63.0288 24.7025 63.0882 23.9993C63.1583 23.5698 63.0936 23.1301 62.9024 22.7357C62.7112 22.3413 62.4021 22.0099 62.0141 21.7835C61.3158 21.3609 60.5138 21.1208 59.6882 21.0874C58.2323 21.0025 56.7764 20.96 55.3293 20.8921C54.0804 20.8667 52.8373 20.7217 51.6186 20.4591C50.5334 20.226 49.5375 19.7086 48.7423 18.9649C48.323 18.5079 48.0192 17.9647 47.8545 17.3774C47.7263 16.8372 47.6993 16.2796 47.7746 15.7304C47.8022 15.3095 47.9297 14.9001 48.1475 14.5333C48.412 14.0045 48.7761 13.5267 49.2217 13.1241C49.9081 12.5613 50.7005 12.1291 51.5564 11.8506C52.5991 11.5147 53.6765 11.287 54.7701 11.1714L55.6578 11.1035H56.9805L58.037 11.1714C59.7457 11.3705 61.4147 11.8081 62.9906 12.4704C63.177 12.5468 63.3545 12.6401 63.5499 12.6996C63.6873 12.7536 63.8385 12.7671 63.984 12.7383C64.1295 12.7096 64.2627 12.6399 64.3666 12.5383C64.5974 12.3175 64.624 12.326 64.9791 12.5383L63.0882 15.8492L62.7598 15.5521L62.8485 15.2804C62.9061 15.2013 62.9436 15.1103 62.958 15.0148C62.9724 14.9194 62.9633 14.822 62.9314 14.7305C62.8995 14.639 62.8457 14.5559 62.7743 14.4877C62.7029 14.4196 62.6158 14.3684 62.5201 14.3381C62.232 14.1795 61.9357 14.035 61.6323 13.9051L61.4548 13.8287L61.0819 13.7438L60.9044 13.6674H60.8156L60.6203 13.591H60.5315L60.3362 13.5231H60.2474L59.9545 13.4382L59.6793 13.3618H59.5816L59.2976 13.2854H59.191L58.8182 13.209H58.7116L58.2411 13.1325H58.0636L57.2913 12.8948C57.2772 12.8892 57.2621 12.8863 57.2469 12.8863C57.2316 12.8863 57.2165 12.8892 57.2025 12.8948C56.5695 12.775 55.918 12.775 55.285 12.8948C55.2564 12.8844 55.2248 12.8844 55.1962 12.8948L54.4416 12.9797H54.3439L53.9533 13.0561L53.5805 13.141H53.474L53.2698 13.209L53.0567 13.2769" fill="white"/>
<path d="M219.526 28.7965C219.526 28.9324 219.526 29.0597 219.526 29.1956H217.697H215.638C215.622 29.1499 215.616 29.1014 215.621 29.0535C215.626 29.0055 215.641 28.9591 215.667 28.9173C215.692 28.8755 215.726 28.8394 215.767 28.8112C215.808 28.7831 215.855 28.7636 215.904 28.7541C216.12 28.6889 216.306 28.5545 216.43 28.3736C216.555 28.1927 216.61 27.9763 216.588 27.7608C216.588 22.9557 216.588 18.1448 216.588 13.3284C216.615 13.1521 216.578 12.9722 216.485 12.8181C216.391 12.664 216.246 12.5446 216.073 12.4794C216.007 12.4642 215.946 12.4359 215.892 12.3964C215.839 12.3569 215.795 12.3071 215.763 12.2502C215.731 12.1933 215.712 12.1306 215.708 12.0662C215.703 12.0019 215.712 11.9373 215.735 11.8766H230.534C230.767 11.8629 230.998 11.8345 231.227 11.7917C231.353 11.7332 231.466 11.6502 231.558 11.5479C231.65 11.4456 231.718 11.3263 231.759 11.1975C231.813 10.9767 232.052 11.0277 232.292 11.0447V14.2537H231.839C231.806 14.2254 231.778 14.1907 231.759 14.1519C231.718 14.0025 231.635 13.8666 231.52 13.7589C231.404 13.6512 231.26 13.5757 231.102 13.5406C230.873 13.5063 230.642 13.4837 230.41 13.4727H219.233H218.763L218.709 13.5576C218.709 15.4366 218.709 17.3157 218.709 19.1947C218.702 19.2511 218.702 19.3081 218.709 19.3645C218.84 19.3986 218.974 19.4213 219.109 19.4324H226.504C226.674 19.422 226.843 19.3993 227.01 19.3645C227.164 19.3435 227.308 19.2789 227.423 19.1791C227.539 19.0793 227.621 18.9487 227.658 18.8042L227.756 18.6174H228.226V21.5124C228.226 21.5549 228.226 21.6058 228.226 21.6482C228.242 21.7146 228.231 21.7844 228.195 21.843C228.158 21.9016 228.099 21.9444 228.031 21.9624C227.993 21.9726 227.952 21.9745 227.913 21.9679C227.874 21.9614 227.837 21.9466 227.805 21.9247C227.773 21.9027 227.746 21.8741 227.727 21.841C227.707 21.8078 227.696 21.771 227.693 21.7331C227.659 21.6045 227.594 21.4852 227.503 21.3849C227.412 21.2847 227.298 21.2062 227.17 21.1558C226.981 21.1056 226.788 21.0715 226.593 21.054H219.038C218.914 21.054 218.745 20.9691 218.683 21.1643C218.683 21.9624 218.683 22.7689 218.683 23.5669C218.683 24.8687 218.683 26.1704 218.683 27.4722C218.683 27.6674 218.683 27.8627 218.683 28.0579C218.678 28.2012 218.725 28.3416 218.816 28.4558C218.906 28.5701 219.035 28.6514 219.18 28.6862L219.464 28.7796" fill="white"/>
<path d="M147.623 17.6934L147.144 17.9736L147.09 18.0754V18.5339V18.5933C147.392 19.4423 147.676 20.2318 147.978 21.0383C148.564 22.5665 149.15 24.0946 149.754 25.6227L150.162 26.667C150.286 26.3783 150.375 26.1831 150.446 25.9878C150.828 24.9436 151.192 23.8993 151.573 22.8551C152.053 21.5562 152.559 20.2573 153.047 18.9584C153.098 18.8368 153.139 18.712 153.171 18.5848C153.287 18.05 153.26 17.999 152.736 17.7359C152.568 17.6594 152.435 17.5661 152.612 17.3708H155.728C155.742 17.41 155.746 17.4517 155.74 17.4926C155.734 17.5336 155.719 17.5727 155.695 17.6071C155.671 17.6415 155.639 17.6702 155.602 17.691C155.564 17.7119 155.523 17.7243 155.48 17.7274C155.29 17.7672 155.114 17.8552 154.972 17.9822C154.83 18.1092 154.726 18.2704 154.672 18.449C154.29 19.4762 153.89 20.495 153.5 21.5137C152.772 23.4494 152.047 25.385 151.325 27.3207C151.272 27.445 151.227 27.5727 151.192 27.7027C151.147 27.8401 151.162 27.9887 151.231 28.116C151.301 28.2433 151.421 28.3389 151.565 28.3819C151.742 28.4498 151.831 28.5262 151.76 28.713H150.482H148.449C148.462 28.6143 148.501 28.5207 148.564 28.4413C148.653 28.3963 148.732 28.3343 148.795 28.259C148.859 28.1837 148.905 28.0968 148.932 28.0036C148.958 27.9105 148.965 27.8131 148.95 27.7175C148.936 27.622 148.901 27.5302 148.848 27.448C148.528 26.5311 148.191 25.6143 147.854 24.7059C147.516 23.7975 147.108 22.7787 146.735 21.8109L145.981 19.8922L145.919 19.7479C145.845 19.7563 145.777 19.7903 145.728 19.8436C145.679 19.8968 145.652 19.9655 145.652 20.0365C145.093 21.5222 144.525 23.0079 143.965 24.5021C143.584 25.5124 143.193 26.5226 142.829 27.5414C142.643 28.0508 142.696 28.1442 143.166 28.3904C143.234 28.4095 143.293 28.4503 143.334 28.5059C143.374 28.5614 143.393 28.6285 143.388 28.696H139.997C140.033 28.591 140.084 28.491 140.148 28.3989C140.26 28.3199 140.366 28.2348 140.468 28.1442C140.549 28.0393 140.584 27.9083 140.565 27.7791C140.388 27.2273 140.201 26.6755 139.988 26.1406C139.624 25.2067 139.234 24.2729 138.87 23.339C138.506 22.4052 138.035 21.2251 137.627 20.1724C137.396 19.5866 137.21 18.9923 136.952 18.415C136.8 18.1949 136.618 17.9951 136.411 17.8207C136.286 17.6764 135.958 17.6679 136.082 17.3623H139.207C139.223 17.4287 139.212 17.4985 139.176 17.5571C139.139 17.6157 139.081 17.6584 139.012 17.6764C138.524 17.9396 138.488 17.9905 138.666 18.4745C139.181 19.8498 139.681 21.177 140.166 22.4561C140.622 23.6503 141.08 24.8417 141.542 26.0302C141.613 26.2085 141.693 26.3783 141.764 26.5481H141.862C142.012 26.1916 142.19 25.8435 142.314 25.4869C142.776 24.2389 143.202 22.9825 143.69 21.7345C144.072 20.7072 144.48 19.697 144.862 18.6697C145.04 18.1943 144.986 18.0924 144.525 17.7698C144.465 17.6804 144.428 17.5785 144.418 17.4727C144.969 17.4727 145.519 17.4727 146.069 17.4727C146.62 17.4727 147.135 17.4727 147.676 17.4727C147.676 17.5151 147.676 17.5576 147.676 17.6L147.632 17.6849" fill="white"/>
<path d="M76 28.9833C75.1335 28.9235 74.2883 28.6983 73.5143 28.3211C72.7269 27.9728 72.0274 27.466 71.4636 26.8355C70.8874 26.1968 70.4688 25.4424 70.2385 24.6281C70.1161 24.0129 70.0744 23.3855 70.1142 22.7604C70.1047 22.0273 70.2782 21.3026 70.6202 20.6465C71.1201 19.6112 71.9416 18.7485 72.9727 18.176C73.928 17.6472 74.9967 17.3337 76.0976 17.2591C76.6872 17.1984 77.2802 17.1729 77.8731 17.1827C79.307 17.2091 80.7064 17.6082 81.9212 18.3373C82.5962 18.7417 83.175 19.2771 83.62 19.9088C84.065 20.5406 84.3663 21.2547 84.5045 22.0048C84.7 22.9113 84.6597 23.8499 84.3873 24.738C84.1148 25.6261 83.6186 26.4367 82.9421 27.0986C82.1387 27.9012 81.1282 28.4868 80.0125 28.7966C79.6244 28.8906 79.2299 28.9587 78.8319 29.0003H76V28.9833ZM77.2961 27.9136C77.9704 27.8445 78.6402 27.7396 79.3024 27.5995C79.9324 27.4612 80.5266 27.2025 81.0494 26.839C81.5722 26.4754 82.0126 26.0145 82.3443 25.4839C82.6761 24.9534 82.8921 24.3641 82.9796 23.7517C83.0671 23.1392 83.0241 22.5161 82.8533 21.9199C82.6652 21.2114 82.2957 20.5586 81.7781 20.0207C81.2605 19.4827 80.611 19.0763 79.8883 18.8382C78.3517 18.2248 76.6291 18.1914 75.0678 18.7448C74.3252 18.976 73.6538 19.379 73.1132 19.9182C72.5727 20.4573 72.1799 21.1157 71.9696 21.835C71.6426 22.9089 71.7374 24.06 72.2361 25.0716C72.7347 26.0833 73.603 26.8857 74.6772 27.3279C75.5257 27.6579 76.4258 27.8501 77.3404 27.8967" fill="white"/>
<path d="M304.053 26.6172C304.053 26.1163 304.053 25.6154 304.053 25.123C304.053 23.1109 304.053 21.0989 304.053 19.0868C304.095 18.9093 304.065 18.7232 303.969 18.5658C303.874 18.4083 303.72 18.2912 303.538 18.2379C303.492 18.2345 303.448 18.2198 303.41 18.1953C303.372 18.1707 303.341 18.1372 303.32 18.0979C303.3 18.0585 303.29 18.0148 303.292 17.9709C303.295 17.927 303.309 17.8845 303.334 17.8474H305.997C306.077 18.0341 306.05 18.1615 305.837 18.2039C305.759 18.2182 305.684 18.2471 305.618 18.289C305.551 18.3309 305.494 18.3849 305.45 18.4481C305.405 18.5112 305.374 18.5821 305.358 18.6568C305.342 18.7315 305.342 18.8084 305.358 18.8831C305.358 21.9847 305.358 25.0975 305.358 28.2217C305.331 28.3799 305.369 28.5418 305.463 28.6743C305.557 28.8069 305.7 28.9001 305.864 28.9349C306.032 28.9349 306.05 29.0707 305.997 29.2405H302.819C302.748 28.8245 303.334 28.9094 303.369 28.5019C303.238 28.2977 303.092 28.102 302.934 27.9161C301.611 26.5153 300.271 25.123 298.957 23.7222L295.593 20.165C295.495 20.0547 295.379 19.9613 295.193 19.783V28.0689C295.193 28.1283 295.193 28.1878 295.193 28.2472C295.168 28.3917 295.201 28.5399 295.285 28.6624C295.369 28.785 295.497 28.8731 295.646 28.9094C295.687 28.9094 295.727 28.9204 295.762 28.9411C295.798 28.9618 295.826 28.9915 295.844 29.0267C295.863 29.062 295.871 29.1014 295.867 29.1407C295.863 29.1799 295.848 29.2174 295.823 29.249H293.16C293.08 29.0962 293.071 29.0028 293.276 28.9349C293.477 28.8726 293.649 28.7433 293.76 28.5705C293.87 28.3976 293.913 28.1926 293.879 27.9925C293.879 25.0268 293.879 22.0611 293.879 19.0953C293.925 18.921 293.899 18.7368 293.809 18.5794C293.718 18.422 293.569 18.3031 293.391 18.2464C293.249 18.1954 293.009 18.102 293.169 17.8389H297.04C297.182 18.0511 297.04 18.1445 296.889 18.2379C296.489 18.4841 296.418 18.6369 296.676 18.9935C296.962 19.3688 297.273 19.7261 297.608 20.0632L300.963 23.6288L303.032 25.8022L303.831 26.6511L304.017 26.8634V26.6172H304.053Z" fill="white"/>
<path d="M252.693 19.9856C252.693 21.0468 252.693 22.108 252.693 23.1608C252.693 24.7059 252.693 26.251 252.693 27.7961C252.693 27.915 252.693 28.0338 252.693 28.1612C252.669 28.3176 252.706 28.4769 252.795 28.6095C252.885 28.7422 253.022 28.8393 253.181 28.8828C253.394 28.9337 253.367 29.0526 253.314 29.2054H250.766C250.738 29.1781 250.719 29.144 250.709 29.1068C250.7 29.0697 250.701 29.0308 250.713 28.9943C250.725 28.9577 250.747 28.9249 250.776 28.8993C250.806 28.8737 250.843 28.8563 250.882 28.8488C251.049 28.7757 251.188 28.6548 251.281 28.5027C251.373 28.3506 251.413 28.1749 251.397 27.9999C251.405 27.8953 251.405 27.7903 251.397 27.6858C251.397 24.8842 251.397 22.0826 251.397 19.281C251.394 19.0295 251.349 18.7801 251.264 18.5424C251.237 18.4693 251.194 18.4022 251.139 18.3453C251.085 18.2884 251.018 18.2428 250.944 18.2113C250.704 18.1434 250.695 18.016 250.749 17.8123H254.566C254.699 18.1943 254.326 18.2028 254.149 18.3556C254.099 18.5321 254.104 18.7186 254.164 18.8922C254.224 19.0657 254.336 19.2186 254.486 19.3319C255.116 20.0196 255.782 20.6988 256.421 21.3779L259.617 24.7738L260.771 25.9793L261.437 26.684H261.561C261.561 26.5057 261.561 26.3189 261.561 26.1406C261.561 23.823 261.561 21.5138 261.561 19.1961C261.541 18.9784 261.502 18.7626 261.446 18.5509C261.437 18.4543 261.395 18.3634 261.326 18.2926C261.256 18.2217 261.164 18.1752 261.064 18.1604C260.842 18.1604 260.86 17.9651 260.913 17.7783H263.488C263.51 17.8152 263.523 17.8569 263.524 17.8997C263.525 17.9424 263.515 17.9847 263.495 18.0228C263.475 18.0608 263.445 18.0934 263.408 18.1174C263.371 18.1415 263.328 18.1562 263.284 18.1604C263.132 18.1967 263 18.2874 262.916 18.4137C262.832 18.54 262.801 18.6924 262.831 18.8395C262.831 18.9584 262.831 19.0772 262.831 19.2046V27.8386C262.831 27.9489 262.831 28.0508 262.831 28.1527C262.809 28.3122 262.847 28.4739 262.938 28.6092C263.029 28.7444 263.167 28.8444 263.328 28.8913C263.541 28.9507 263.497 29.0696 263.443 29.2139H260.318C260.247 29.0781 260.221 28.9762 260.398 28.9168C260.47 28.8862 260.538 28.8492 260.603 28.8064C260.922 28.6281 260.967 28.5262 260.727 28.2631C260.135 27.6178 259.543 26.9839 258.951 26.3614C257.768 25.0823 256.56 23.806 255.329 22.5325L252.808 19.8922L252.693 19.6885V20.0111V19.9856Z" fill="white"/>
<path d="M312.378 22.1544C312.164 22.753 312.084 23.3878 312.142 24.018C312.2 24.6482 312.395 25.2598 312.715 25.8134C313.018 26.35 313.436 26.8199 313.94 27.1927C314.445 27.5656 315.025 27.8332 315.645 27.9783L315.831 28.0462H316.018L316.213 28.0971H316.497L316.87 28.1566H318.397L318.761 28.1735L319.515 28.0462L319.702 27.9868C320.315 27.8651 320.898 27.6285 321.415 27.2906C321.579 27.2023 321.713 27.0701 321.8 26.9103C321.886 26.7504 321.922 26.5699 321.903 26.3907C321.903 25.9238 321.903 25.4568 321.903 24.9899L321.815 24.905H319.151L318.734 24.9729C318.621 25.0246 318.522 25.1018 318.446 25.1979C318.37 25.2939 318.32 25.4061 318.299 25.5248H318.024V23.1477C318.055 23.1249 318.092 23.1105 318.131 23.1058C318.17 23.1011 318.209 23.1064 318.245 23.1211C318.281 23.1357 318.313 23.1593 318.336 23.1893C318.36 23.2193 318.375 23.2547 318.379 23.292C318.417 23.4406 318.512 23.5701 318.645 23.655C318.778 23.7399 318.94 23.774 319.098 23.7504H322.889C323.155 23.7504 323.43 23.7504 323.697 23.7504C323.797 23.7725 323.893 23.8098 323.981 23.8608C323.946 23.9498 323.888 24.0288 323.812 24.09C323.628 24.1396 323.472 24.2565 323.377 24.4153C323.282 24.5742 323.257 24.7623 323.306 24.939C323.306 25.3804 323.306 25.7879 323.306 26.2549C323.293 26.3979 323.332 26.5407 323.416 26.6596C323.5 26.7786 323.624 26.8664 323.768 26.9086C324.061 27.0189 324.052 27.1548 323.768 27.35C322.655 28.2116 321.372 28.8497 319.995 29.2263C319.534 29.3848 319.045 29.4541 318.557 29.43H316.364C315.369 29.3912 314.398 29.1223 313.535 28.6462C312.673 28.1701 311.943 27.501 311.41 26.6963C311.105 26.2182 310.858 25.7083 310.673 25.1767C310.505 24.6057 310.436 24.0119 310.469 23.4193C310.455 22.6522 310.615 21.8913 310.938 21.1892C311.262 20.487 311.741 19.8605 312.342 19.3528C313.234 18.5745 314.334 18.0483 315.521 17.8331C316.246 17.678 316.988 17.6068 317.731 17.6209C319.032 17.646 320.312 17.9354 321.486 18.4699L322.33 18.8689C322.978 19.1915 322.942 19.0726 323.368 18.7076L323.688 18.8604C323.235 19.5565 322.8 20.2272 322.347 20.8894C322.27 20.9531 322.179 20.9995 322.081 21.0252C322.053 20.9362 322.033 20.8454 322.019 20.7536C322.013 20.6376 322.013 20.5214 322.019 20.4055L321.966 20.3376C321.829 20.1954 321.677 20.0673 321.513 19.9555C321.104 19.7263 320.669 19.5311 320.252 19.3273L320.075 19.2509H319.986L319.791 19.1745H319.746L319.542 19.1066H319.444L319.16 19.0302H318.992L318.583 18.9623H318.406C317.863 18.8419 317.298 18.8419 316.754 18.9623H316.586L316.115 19.0472H316.018L315.742 19.1236H315.636L315.449 19.1915L315.165 19.2934L314.988 19.3698C314.432 19.5984 313.93 19.931 313.511 20.3479C313.091 20.7649 312.764 21.2579 312.547 21.7978V21.8827L312.484 22.0695V22.1629" fill="white"/>
<path d="M268.334 29.2398L268.254 28.9596C268.505 28.8752 268.716 28.7087 268.851 28.4897C268.986 28.2707 269.035 28.0132 268.991 27.7626C268.991 24.9327 268.991 22.1028 268.991 19.2729C269.028 19.06 268.993 18.8412 268.891 18.6487C268.788 18.4562 268.624 18.3001 268.423 18.2032C268.386 18.1915 268.354 18.1708 268.328 18.1434C268.302 18.1159 268.285 18.0826 268.277 18.0467C268.269 18.0107 268.271 17.9734 268.282 17.9383C268.294 17.9033 268.315 17.8717 268.343 17.8467C268.511 17.8467 268.689 17.8467 268.858 17.8467H272.364H275.96C276.623 17.9256 277.276 18.0766 277.904 18.2966C278.829 18.6889 279.598 19.3557 280.096 20.1983C280.772 21.2536 281.106 22.4766 281.055 23.713C281.015 25.1358 280.46 26.501 279.484 27.5758C278.929 28.2132 278.177 28.6651 277.336 28.8663C276.92 29.0165 276.483 29.1025 276.039 29.121C275.489 29.121 274.939 29.121 274.388 29.121H268.849C268.68 29.121 268.502 29.121 268.334 29.121V29.2398ZM270.553 27.9579H270.997C272.107 27.9579 273.208 27.9579 274.317 27.9579C274.869 27.9486 275.42 27.9118 275.968 27.8475C276.651 27.7899 277.303 27.5444 277.843 27.1407C278.383 26.7369 278.79 26.1922 279.013 25.5723C279.583 24.214 279.608 22.7025 279.084 21.3274C278.883 20.6757 278.482 20.0966 277.933 19.6653C277.384 19.2339 276.712 18.9701 276.004 18.9079C275.631 18.8521 275.254 18.8181 274.877 18.806C273.518 18.806 272.16 18.806 270.793 18.806C270.716 18.8016 270.639 18.8016 270.562 18.806V28.0767L270.553 27.9579Z" fill="white"/>
<path d="M184.865 24.9664C184.813 24.7826 184.716 24.6134 184.581 24.4731C184.447 24.3328 184.279 24.2253 184.092 24.1598L183.906 24.0834H183.444C183.394 24.0031 183.315 23.9432 183.222 23.9151C183.128 23.8869 183.028 23.8924 182.938 23.9306H182.761L181.509 23.8542H181.252L179.627 23.7778H179.387L178.438 23.6929L178.047 23.625H177.94L177.568 23.5401L177.292 23.4552L177.088 23.3788C176.756 23.2259 176.435 23.0499 176.129 22.8524C175.853 22.6552 175.629 22.3989 175.475 22.1041C175.321 21.8093 175.241 21.4841 175.242 21.1545C175.2 20.6776 175.248 20.1974 175.384 19.7367C175.612 19.1477 176.041 18.6487 176.6 18.319C177.423 17.7506 178.381 17.3861 179.387 17.2577C179.778 17.2577 180.169 17.1729 180.559 17.1729C182.022 17.1827 183.467 17.4713 184.812 18.0218L185.025 18.1152C185.171 18.1979 185.346 18.2229 185.512 18.1849C185.677 18.1469 185.821 18.0488 185.912 17.9115L186.259 17.9879L185.149 20.1442H184.962C184.913 20.0425 184.883 19.9333 184.874 19.8216C184.89 19.7176 184.872 19.6112 184.821 19.518C184.77 19.4248 184.689 19.3497 184.59 19.3038C184.279 19.1425 183.95 18.9981 183.631 18.8538L183.436 18.8368L183.222 18.7604L183.018 18.6925H182.858L182.548 18.6246H182.503L181.926 18.5397C181.259 18.4084 180.57 18.4084 179.902 18.5397L179.405 18.6246L179.094 18.701L178.73 18.8114L178.535 18.8878C178.227 19.0106 177.93 19.1583 177.647 19.3292C177.354 19.5155 177.129 19.7855 177.004 20.1009C176.88 20.4164 176.863 20.7612 176.955 21.0866C177.035 21.4071 177.223 21.6938 177.489 21.9036C177.754 22.1134 178.084 22.2349 178.429 22.2497L178.695 22.3091H179.077L179.964 22.377H180.852L182.281 22.4449H182.841L183.515 22.5128H183.879L184.163 22.5723C184.733 22.6874 185.279 22.8911 185.779 23.175C186.202 23.4986 186.527 23.924 186.72 24.4075C186.914 24.8909 186.969 25.415 186.88 25.9257C186.767 26.4851 186.505 27.0072 186.119 27.4415C185.734 27.8758 185.237 28.2075 184.678 28.4047C184.146 28.6254 183.578 28.7782 183.027 28.948C182.904 28.9654 182.778 28.9654 182.654 28.948H179.991C178.53 28.8023 177.114 28.3779 175.828 27.7C175.759 27.6514 175.682 27.6168 175.599 27.5985C175.516 27.5802 175.43 27.5786 175.347 27.5938C175.263 27.6089 175.184 27.6406 175.114 27.6866C175.044 27.7327 174.984 27.7922 174.94 27.8613L174.709 27.6661C175.117 26.9954 175.508 26.3417 175.907 25.705C175.994 25.6301 176.097 25.5749 176.209 25.5437C176.268 25.6244 176.304 25.7177 176.316 25.8153C176.283 25.9569 176.304 26.105 176.373 26.2337C176.443 26.3625 176.558 26.4638 176.698 26.52C177.312 26.9029 177.986 27.1895 178.695 27.3689L178.881 27.4368H178.988L179.165 27.4963H179.361L179.547 27.5472L180.666 27.7H181.767L182.308 27.6491L182.681 27.5812L183.356 27.4368H183.444C183.903 27.3508 184.329 27.1485 184.678 26.8511L184.741 26.7916L184.82 26.7152L184.891 26.6473C185.079 26.4178 185.217 26.1544 185.296 25.8729C185.376 25.5914 185.395 25.2976 185.353 25.0088L185.309 24.9069" fill="white"/>
<path d="M120.269 28.8063C120.247 28.7923 120.229 28.7734 120.216 28.7512C120.204 28.729 120.197 28.7042 120.197 28.6789C120.197 28.6537 120.204 28.6289 120.216 28.6067C120.229 28.5845 120.247 28.5655 120.269 28.5516C120.298 28.5461 120.328 28.5461 120.358 28.5516C120.577 28.4546 120.757 28.2919 120.871 28.0881C120.984 27.8843 121.026 27.6506 120.988 27.4225C120.988 24.5473 120.988 21.675 120.988 18.8055C121.028 18.6004 120.992 18.3884 120.887 18.2056C120.782 18.0229 120.613 17.8808 120.411 17.8037C120.355 17.7106 120.324 17.6055 120.322 17.498H123.234C123.244 17.5304 123.248 17.5646 123.243 17.5983C123.239 17.6319 123.227 17.6644 123.209 17.6933C123.19 17.7223 123.166 17.7471 123.136 17.7661C123.107 17.7852 123.073 17.798 123.038 17.8037C122.948 17.829 122.865 17.871 122.792 17.9275C122.719 17.984 122.658 18.0537 122.614 18.1326C122.569 18.2115 122.541 18.2981 122.532 18.3874C122.523 18.4767 122.532 18.5668 122.559 18.6526C122.559 19.6374 122.559 20.6222 122.559 21.5986C122.559 21.8532 122.559 22.1079 122.559 22.3881C122.652 22.4124 122.747 22.4295 122.843 22.439H130.203H130.389L130.478 22.3456C130.478 21.0807 130.478 19.7987 130.478 18.5508C130.485 18.4075 130.443 18.2659 130.358 18.1478C130.273 18.0297 130.15 17.9416 130.007 17.8971C129.968 17.8885 129.931 17.8721 129.899 17.849C129.867 17.8258 129.841 17.7964 129.821 17.7627C129.802 17.729 129.79 17.6918 129.787 17.6535C129.784 17.6152 129.79 17.5767 129.803 17.5405H132.706C132.703 17.6306 132.666 17.7167 132.603 17.7836C132.539 17.8504 132.453 17.8936 132.36 17.9056C132.264 17.9356 132.181 17.9953 132.125 18.0752C132.069 18.1552 132.042 18.2509 132.049 18.347C132.049 18.5083 132.049 18.6781 132.049 18.8394C132.049 21.7202 132.049 24.6011 132.049 27.4819C132.049 27.6177 132.049 27.7536 132.049 27.8894C132.037 28.0324 132.078 28.1749 132.164 28.2925C132.249 28.4102 132.375 28.4957 132.52 28.5346C132.555 28.5397 132.589 28.5516 132.619 28.5694C132.649 28.5872 132.676 28.6107 132.696 28.6384C132.717 28.6661 132.732 28.6974 132.739 28.7307C132.747 28.7639 132.748 28.7982 132.742 28.8317H129.821C129.798 28.7608 129.805 28.6841 129.839 28.6177C129.874 28.5513 129.934 28.5003 130.007 28.4752C130.17 28.3982 130.303 28.2756 130.391 28.1238C130.478 27.9721 130.514 27.7985 130.496 27.6262C130.496 26.3018 130.496 24.9774 130.496 23.6531L130.318 23.5682H129.519H123.243H122.728L122.612 23.6531C122.612 24.5699 122.612 25.4953 122.612 26.4122C122.612 26.8621 122.612 27.3206 122.612 27.7705C122.592 27.9287 122.629 28.0888 122.718 28.2235C122.807 28.3583 122.942 28.4592 123.101 28.5091C123.135 28.5152 123.167 28.5278 123.196 28.5461C123.225 28.5645 123.25 28.5883 123.269 28.616C123.288 28.6438 123.301 28.675 123.307 28.7077C123.313 28.7404 123.313 28.7739 123.305 28.8063H122.781H120.366" fill="white"/>
<path d="M161.778 23.531C161.778 24.8951 161.778 26.2562 161.778 27.6146C161.882 27.66 161.993 27.6914 162.106 27.708H169.137C169.261 27.6962 169.382 27.6734 169.501 27.64C169.599 27.6228 169.69 27.5816 169.767 27.5206C169.843 27.4597 169.901 27.3809 169.936 27.292C169.946 27.2475 169.967 27.2057 169.996 27.1699C170.025 27.1342 170.063 27.1053 170.106 27.0857C170.149 27.066 170.196 27.056 170.243 27.0564C170.291 27.0569 170.338 27.0677 170.38 27.0882C170.38 27.8608 170.38 28.6333 170.38 29.3974C170.348 29.455 170.303 29.5045 170.247 29.5417L169.608 28.8626C169.411 28.8247 169.213 28.7992 169.013 28.7862H160.073H159.505C159.489 28.7131 159.501 28.6368 159.541 28.5722C159.58 28.5077 159.644 28.4598 159.718 28.4381C159.86 28.378 159.98 28.2805 160.065 28.1571C160.15 28.0337 160.196 27.8896 160.198 27.7419C160.206 27.6515 160.206 27.5606 160.198 27.4703C160.198 24.5668 160.198 21.6633 160.198 18.7599C160.217 18.6417 160.217 18.5214 160.198 18.4033C160.191 18.2434 160.12 18.0922 159.999 17.9814C159.878 17.8707 159.717 17.8089 159.55 17.809V17.4694H160.118H168.88C169.065 17.4576 169.248 17.4349 169.43 17.4015C169.578 17.3653 169.714 17.2932 169.825 17.1921C169.935 17.0909 170.016 16.9642 170.061 16.8242H170.345C170.345 17.6109 170.345 18.3976 170.345 19.1843H170.061C169.962 18.9587 169.795 18.7665 169.581 18.6325C169.459 18.5829 169.331 18.5487 169.199 18.5306H162.097C162.001 18.547 161.908 18.5786 161.822 18.624V22.317C161.938 22.317 162.062 22.317 162.177 22.317H166.439C166.609 22.3416 166.784 22.3127 166.936 22.2347C167.088 22.1566 167.209 22.0336 167.282 21.8841C167.29 21.8447 167.308 21.8078 167.334 21.7765C167.36 21.7452 167.394 21.7206 167.433 21.7047C167.471 21.6888 167.513 21.6821 167.555 21.6853C167.597 21.6884 167.637 21.7013 167.673 21.7228V24.0574C167.539 24.1168 167.38 24.1678 167.317 23.964C167.265 23.8497 167.187 23.7479 167.089 23.6657C166.991 23.5835 166.875 23.523 166.749 23.4886C166.656 23.4471 166.558 23.4185 166.456 23.4037H162.115C162.017 23.4181 161.921 23.4467 161.831 23.4886" fill="white"/>
<path d="M241.582 28.1799C242.264 28.1407 242.917 27.9038 243.455 27.5008C243.633 27.3607 243.778 27.1862 243.881 26.9886C243.983 26.7911 244.041 26.575 244.05 26.3547C244.378 23.9776 244.121 21.5835 244.201 19.2064C244.244 19.0078 244.211 18.801 244.108 18.6234C244.006 18.4459 243.84 18.3094 243.641 18.2386C243.545 18.1315 243.477 18.0031 243.446 17.865H246.109C246.132 17.8969 246.146 17.9339 246.15 17.9724C246.154 18.011 246.148 18.0499 246.132 18.0855C246.116 18.1211 246.091 18.1522 246.059 18.1761C246.027 18.1999 245.989 18.2155 245.949 18.2216C245.799 18.2714 245.671 18.3699 245.589 18.5001C245.506 18.6303 245.473 18.784 245.497 18.9347C245.497 19.0536 245.497 19.1809 245.497 19.2998C245.497 21.4222 245.497 23.5446 245.497 25.6585C245.498 26.0956 245.448 26.5314 245.346 26.9574C245.219 27.441 244.965 27.8853 244.608 28.248C244.25 28.6107 243.801 28.8796 243.304 29.0289C242.983 29.1331 242.658 29.2209 242.327 29.2921L242.123 29.343L241.449 29.4279H238.785C238.181 29.421 237.581 29.3207 237.01 29.1308C236.505 28.9963 236.041 28.7514 235.652 28.4154C235.264 28.0795 234.963 27.6617 234.773 27.1951C234.745 27.1419 234.727 27.0845 234.719 27.0254C234.719 26.3801 234.631 25.7264 234.631 25.0812C234.631 23.1003 234.631 21.1194 234.631 19.1385C234.679 18.9474 234.65 18.7459 234.549 18.5744C234.449 18.4029 234.285 18.2739 234.089 18.2131C234.046 18.2073 234.005 18.1911 233.97 18.1659C233.935 18.1407 233.907 18.1075 233.889 18.0692C233.872 18.031 233.864 17.9891 233.868 17.9474C233.872 17.9057 233.887 17.8657 233.912 17.8311H236.752C236.818 17.8727 236.872 17.9278 236.912 17.9924C236.807 18.0825 236.691 18.1595 236.566 18.2216C236.453 18.2558 236.355 18.3256 236.289 18.4197C236.223 18.5138 236.192 18.6265 236.202 18.7394C236.202 18.8923 236.202 19.0451 236.202 19.1894C236.202 21.1675 236.202 23.1541 236.202 25.1322C236.215 25.6464 236.259 26.1595 236.335 26.6688C236.384 26.8368 236.459 26.997 236.557 27.1442L236.628 27.2206L236.708 27.3055L236.806 27.3989L236.894 27.4753L236.974 27.5432C237.489 27.9069 238.11 28.1087 238.75 28.1205L239.336 28.1884H241.04L241.626 28.1205" fill="white"/>
<path d="M93.3833 28.9767C92.3797 28.9713 91.406 28.649 90.6136 28.0599C90.0447 27.6475 89.6684 27.0375 89.566 26.3619C89.5324 25.7766 89.5324 25.1899 89.566 24.6046C89.566 22.6576 89.566 20.7106 89.566 18.7637C89.599 18.5736 89.5634 18.3784 89.4649 18.2102C89.3665 18.042 89.2112 17.9109 89.0245 17.8383C88.9583 17.8135 88.9047 17.7652 88.8749 17.7035C88.8452 17.6418 88.8415 17.5715 88.8647 17.5072H91.7676C91.7814 17.5423 91.7866 17.58 91.7828 17.6173C91.779 17.6547 91.7664 17.6907 91.7458 17.7226C91.7253 17.7545 91.6973 17.7816 91.6642 17.8016C91.6311 17.8217 91.5936 17.8342 91.5546 17.8383C91.4233 17.8695 91.3074 17.9433 91.2265 18.0469C91.1456 18.1506 91.1047 18.2779 91.1107 18.4071C91.1058 18.4976 91.1058 18.5883 91.1107 18.6788C91.1107 20.7588 91.1107 22.8472 91.1107 24.9272C91.1107 25.2922 91.164 25.6488 91.1817 26.0054C91.2005 26.3232 91.3177 26.6286 91.5185 26.8826C91.7192 27.1366 91.9945 27.3277 92.3092 27.4316C92.6882 27.5786 93.0804 27.6923 93.481 27.7712C93.7245 27.8144 93.9706 27.8427 94.2178 27.8561C94.8533 27.9812 95.5088 27.9812 96.1442 27.8561C96.9683 27.8376 97.7682 27.5865 98.4435 27.1345C98.6669 26.9734 98.834 26.7514 98.9229 26.4978C99.1064 26.0197 99.1937 25.5127 99.1803 25.0036C99.1803 22.8727 99.1803 20.7588 99.1803 18.6109C99.1984 18.4531 99.1622 18.2941 99.0774 18.1577C98.9925 18.0214 98.8634 17.9152 98.7098 17.8553C98.6696 17.847 98.6317 17.8303 98.5988 17.8066C98.566 17.7829 98.5389 17.7526 98.5194 17.7179C98.5 17.6832 98.4887 17.6448 98.4863 17.6055C98.484 17.5662 98.4905 17.5269 98.5056 17.4902H101.169C101.183 17.5178 101.191 17.5479 101.192 17.5787C101.193 17.6094 101.187 17.64 101.174 17.6682C101.161 17.6965 101.142 17.7218 101.119 17.7423C101.095 17.7629 101.066 17.7783 101.036 17.7874C100.85 17.8372 100.692 17.9529 100.593 18.1107C100.494 18.2685 100.462 18.4566 100.503 18.6363C100.503 20.7418 100.503 22.8812 100.503 24.9442C100.495 25.5302 100.42 26.1138 100.281 26.6845C100.159 27.0851 99.9453 27.4545 99.655 27.7659C99.3647 28.0773 99.0054 28.3227 98.6033 28.4843C98.0544 28.7204 97.4753 28.8859 96.881 28.9767H93.3301" fill="white"/>
<path d="M194.924 18.6198H190.921L190.61 18.6877C190.433 18.7775 190.299 18.9297 190.237 19.1122C190.16 19.2019 190.063 19.2743 189.953 19.3244V16.8624C190.104 16.803 190.211 16.8115 190.255 16.9813C190.297 17.1436 190.402 17.2846 190.549 17.376C190.695 17.4673 190.873 17.5022 191.045 17.4737H193.584C195.848 17.4737 198.103 17.4737 200.366 17.4737C200.56 17.5083 200.76 17.4804 200.935 17.3943C201.11 17.3082 201.251 17.1689 201.334 16.9982C201.443 16.8864 201.572 16.7943 201.716 16.7266C201.716 17.618 201.716 18.4245 201.716 19.1716C201.682 19.2492 201.63 19.3188 201.565 19.3753L201.023 18.7047L200.784 18.6452H198.813H196.798L196.62 18.7301C196.62 18.849 196.62 18.9678 196.62 19.0952C196.62 21.9251 196.62 24.738 196.62 27.5339C196.62 27.6103 196.62 27.6867 196.62 27.7631C196.598 27.9215 196.634 28.0824 196.723 28.2175C196.813 28.3526 196.949 28.4532 197.108 28.5017C197.143 28.5068 197.176 28.5194 197.205 28.5386C197.235 28.5579 197.259 28.5833 197.276 28.6128C197.293 28.6423 197.303 28.6752 197.304 28.7089C197.306 28.7427 197.3 28.7763 197.286 28.8073H194.365C194.354 28.7336 194.371 28.6583 194.413 28.5957C194.456 28.5332 194.521 28.4877 194.596 28.4678C194.749 28.3994 194.877 28.288 194.963 28.1486C195.048 28.0091 195.088 27.848 195.075 27.6867C195.079 27.6415 195.079 27.5961 195.075 27.5509C195.075 24.721 195.075 21.8685 195.075 18.9933C195.075 18.9169 195.075 18.8405 195.075 18.7641L194.933 18.6537" fill="white"/>
<path d="M109.539 18.6222H105.544L105.251 18.6987C105.153 18.809 105.047 18.9109 104.958 19.0213C104.869 19.1316 104.807 19.2335 104.718 19.3608C104.556 18.5208 104.529 17.6618 104.638 16.8139C104.665 16.7979 104.696 16.7887 104.728 16.7873C104.76 16.7859 104.792 16.7923 104.82 16.8059C104.849 16.8196 104.873 16.8399 104.891 16.8651C104.909 16.8903 104.92 16.9194 104.922 16.9498C104.985 17.1189 105.109 17.2609 105.272 17.3498C105.435 17.4386 105.626 17.4684 105.81 17.4337H115.203C115.304 17.4574 115.409 17.4598 115.511 17.4408C115.613 17.4219 115.709 17.382 115.794 17.3238C115.878 17.2657 115.948 17.1908 116 17.1043C116.051 17.0177 116.082 16.9215 116.09 16.8224H116.392V19.2335H116.135L115.735 18.7071L115.469 18.6222H111.483L111.323 18.7241C111.323 19.9749 111.323 21.2257 111.323 22.4765C111.323 24.1349 111.323 25.7932 111.323 27.4515C111.323 27.6128 111.323 27.7826 111.323 27.9439C111.318 28.0659 111.362 28.185 111.446 28.2767C111.531 28.3683 111.649 28.4255 111.776 28.4363L111.918 28.4957V28.7929H109.059C109.047 28.7577 109.042 28.7206 109.044 28.6836C109.047 28.6466 109.057 28.6105 109.075 28.5773C109.092 28.5442 109.116 28.5146 109.145 28.4904C109.175 28.4662 109.209 28.4478 109.246 28.4363C109.406 28.358 109.538 28.2349 109.624 28.0833C109.709 27.9316 109.745 27.7586 109.725 27.5873C109.725 24.6442 109.725 21.704 109.725 18.7666C109.728 18.7355 109.728 18.7043 109.725 18.6732L109.556 18.5798" fill="white"/>
<path d="M286.169 28.4431C286.169 28.2648 286.222 28.0866 286.222 27.9083C286.222 24.9878 286.222 22.0702 286.222 19.1554C286.222 19.079 286.222 19.0026 286.222 18.9262C286.243 18.7911 286.215 18.6533 286.142 18.5358C286.07 18.4182 285.957 18.3283 285.823 18.281C285.768 18.2764 285.715 18.2605 285.667 18.2345C285.619 18.2084 285.578 18.1728 285.546 18.1301C285.514 18.0874 285.492 18.0385 285.482 17.9869C285.471 17.9353 285.472 17.8821 285.485 17.8311H288.344C288.409 17.8731 288.463 17.9282 288.504 17.9924C288.403 18.083 288.289 18.1601 288.167 18.2216C288.053 18.2556 287.954 18.325 287.887 18.4189C287.819 18.5128 287.786 18.6257 287.794 18.7394C287.794 18.9347 287.794 19.13 287.794 19.3252C287.794 22.1551 287.794 24.968 287.794 27.764C287.794 27.8743 287.794 27.9762 287.794 28.0781C287.756 28.2623 287.794 28.4533 287.9 28.6114C288.006 28.7694 288.171 28.8825 288.362 28.927C288.422 28.9678 288.474 29.0197 288.513 29.0799C288.459 29.1459 288.389 29.1983 288.309 29.2327H285.53C285.477 29.0799 285.441 28.9695 285.627 28.9186C285.741 28.8919 285.847 28.8415 285.937 28.771C286.028 28.7005 286.101 28.6118 286.151 28.511L286.196 28.4516" fill="white"/>
<path d="M16.3823 17.2608C16.2029 16.9516 16.0074 16.6513 15.7964 16.3609C15.1128 15.512 14.4115 14.663 13.7013 13.814C13.3551 13.3895 12.9734 12.9651 12.6094 12.5745L12.7337 12.4727C14.1445 13.6607 15.6266 14.769 17.1724 15.7921C17.2287 15.8623 17.3038 15.9167 17.3897 15.9496C17.4756 15.9825 17.5692 15.9926 17.6606 15.9789C17.6868 16.0327 17.7229 16.0816 17.7672 16.1232C18.5082 16.6116 19.3143 17.0028 20.1641 17.2863C20.4821 17.381 20.8226 17.381 21.1406 17.2863C21.8813 17.0946 22.5919 16.8091 23.2534 16.4373C23.5243 16.2527 23.7823 16.0513 24.0258 15.8346C24.3897 15.6138 24.7715 15.4101 25.1088 15.1639C26.0853 14.4507 27.0441 13.7121 28.0029 12.9905L28.1982 13.0839C27.488 13.9329 26.76 14.7818 26.0676 15.6308C25.6947 16.0893 25.384 16.5901 25.0467 17.0741C24.9598 17.1407 24.8823 17.2178 24.8159 17.3033C24.5052 17.8466 24.1856 18.3815 23.9281 18.9333C23.7278 19.2926 23.6127 19.6897 23.5908 20.0964H24.1234C26.2363 20.0964 28.358 20.1558 30.4708 20.1643C33.791 20.1643 37.1111 20.1643 40.4313 20.1643L40.9373 20.2662H40.6621L39.6146 20.3426L38.2829 20.4275H38.2297L36.8981 20.5039H36.6761L35.7174 20.5803H35.4422L34.5544 20.6567H34.3769L33.4891 20.7416H33.3027L32.628 20.818H32.4505L31.7758 20.8944H31.5894L31.0123 20.9708H30.8259L30.2489 21.0472C29.9381 21.1066 29.6186 21.1831 29.299 21.2255C28.6332 21.3189 27.9585 21.3868 27.2927 21.4972C26.6269 21.6075 25.8279 21.7858 25.0999 21.9471C24.8514 21.9981 24.6028 22.083 24.3098 22.1678C25.5247 24.0606 26.9152 25.845 28.4645 27.4994V27.7201L27.8697 27.3296C27.195 26.8032 26.5381 26.2684 25.8456 25.759C25.1532 25.2496 24.514 24.7827 23.8393 24.3242C23.8191 24.2835 23.7922 24.2463 23.7594 24.2139C22.9799 23.6967 22.1242 23.2933 21.2205 23.0168C21.0879 23.0008 20.9536 23.0008 20.821 23.0168V23.5432C20.821 28.2974 20.821 33.0488 20.821 37.7973C20.821 38.1454 20.821 38.4935 20.821 38.8415L20.75 38.7991C20.6346 37.8822 20.5369 36.9738 20.4126 36.0569C20.3239 35.4457 20.2173 34.8429 20.1019 34.2317C19.9865 33.6204 19.8356 32.9752 19.7202 32.3385C19.587 31.5744 19.4805 30.8018 19.3385 30.0378C19.232 29.4944 19.1077 28.9511 18.9479 28.4162C18.646 27.3805 18.3176 26.3448 17.998 25.3175C17.9092 25.0345 17.8086 24.7515 17.6962 24.4686C17.6446 24.3945 17.5783 24.331 17.5008 24.2818C18.0868 23.9592 18.6638 23.6111 19.2763 23.3224C19.6357 23.168 20.0105 23.0486 20.3949 22.9659C20.7322 22.881 20.75 22.8895 20.75 22.5499C20.75 21.8537 20.75 21.1576 20.75 20.4614C20.7382 20.3497 20.7174 20.239 20.6879 20.1303H17.8116C17.7705 20.0665 17.7377 19.998 17.7139 19.9266C17.5459 19.1095 17.2143 18.3311 16.7374 17.6344C16.6315 17.489 16.5127 17.3527 16.3823 17.2269" fill="#6F87E0"/>
<path d="M24.0297 15.8325C23.7792 16.0327 23.5152 16.217 23.2396 16.3844C22.5784 16.7568 21.8677 17.0423 21.1268 17.2333C20.8089 17.3286 20.4682 17.3286 20.1503 17.2333C19.3224 16.9481 18.5374 16.5599 17.8155 16.0787C17.7713 16.0371 17.7353 15.9882 17.709 15.9344C18.0907 14.8732 18.4902 13.8205 18.8542 12.7593C19.0495 12.1735 19.2004 11.5707 19.3424 10.968C19.4845 10.3652 19.6354 9.75395 19.7419 9.14269C19.8484 8.53143 19.9106 7.85226 19.9816 7.20705C20.2006 5.25442 20.4166 3.30463 20.6297 1.35767C20.6829 0.907717 20.7184 0.457765 20.7717 0.0078125H20.8427C20.9137 0.636048 20.9936 1.25579 21.0647 1.88403C21.2511 3.48857 21.4198 5.09312 21.6151 6.70616C21.7571 7.86075 21.8725 9.01535 22.0944 10.153C22.4162 12.024 23.014 13.842 23.8699 15.5524C23.9313 15.6528 23.9995 15.7492 24.0741 15.841" fill="white"/>
<path d="M16.3832 17.2582C16.5136 17.384 16.6324 17.5203 16.7383 17.6657C17.2152 18.3624 17.5468 19.1408 17.7148 19.9579C17.7386 20.0294 17.7714 20.0978 17.8125 20.1617H20.6532C20.6828 20.2703 20.7036 20.381 20.7154 20.4928C20.7154 21.1889 20.7154 21.8851 20.7154 22.5812C20.7154 22.9208 20.7154 22.9038 20.3603 22.9972C19.9759 23.0799 19.6011 23.1994 19.2417 23.3538C18.6381 23.6424 18.061 23.9905 17.4662 24.3131C16.7116 24.8225 15.9482 25.3234 15.2025 25.8497C14.6077 26.2742 14.0484 26.7496 13.4714 27.1996L13.0098 27.5646L12.8411 27.4033C14.0475 26.1267 15.1627 24.7738 16.179 23.3538C16.8822 22.5277 17.3909 21.5663 17.6704 20.5352C17.688 20.4084 17.688 20.28 17.6704 20.1532H3.83048L0.945312 20.1956V20.0852H1.22051L2.10826 20.0088H2.48111L3.53753 19.9324H3.91038L4.58506 19.8645H4.94904L5.53495 19.6862H5.89892L6.38718 19.6183C6.98197 19.5589 7.57676 19.5249 8.16267 19.4231C9.54755 19.1797 10.9265 18.9165 12.2996 18.6335C13.5112 18.3254 14.698 17.9339 15.8505 17.4619C16.0192 17.4025 16.179 17.3176 16.3477 17.2412" fill="white"/>
<path d="M20.8008 38.8298C20.8008 38.4817 20.8008 38.1337 20.8008 37.7856C20.8008 33.0314 20.8008 28.28 20.8008 23.5314V23.0051C20.9334 22.9892 21.0676 22.9892 21.2003 23.0051C22.1041 23.2812 22.9598 23.6846 23.7392 24.2021C23.7722 24.2343 23.7992 24.2717 23.8191 24.3125C23.4995 25.3567 23.1533 26.3925 22.8781 27.4452C22.5348 28.7469 22.2389 30.0543 21.9904 31.3674C21.8394 32.106 21.7951 32.8616 21.6885 33.6002C21.5287 34.7038 21.3689 35.816 21.2091 36.8687C21.1026 37.6582 21.0138 38.4478 20.9162 39.2458L20.8008 38.8298Z" fill="white"/>
<path d="M0.948822 20.1924H3.84287H17.6562C17.6739 20.3192 17.6739 20.4476 17.6562 20.5744C17.3801 21.5983 16.8775 22.5536 16.1825 23.376C16.0707 23.27 15.9521 23.1707 15.8274 23.0789C14.7188 22.5245 13.5445 22.0997 12.3297 21.8139C11.7452 21.6549 11.1526 21.5246 10.5542 21.4234C9.87953 21.3045 9.19597 21.2366 8.5124 21.1517C8.45302 21.137 8.3962 21.1142 8.34373 21.0838L7.89098 20.9989C7.72231 20.9989 7.55364 20.9989 7.39385 20.9989C7.23405 20.9989 7.10089 20.9395 6.95885 20.914L6.37294 20.8376H6.19539L5.5207 20.7612H5.2455L4.4998 20.6254H4.23348L3.34573 20.549H3.07053L1.91646 20.4725H1.54361L0.0078125 20.3961C0.135883 20.3551 0.266298 20.3211 0.39842 20.2943C0.575969 20.2943 0.762396 20.2943 0.948822 20.2433" fill="#6F87E0"/>
<path d="M40.446 20.1566C37.1258 20.1566 33.8056 20.1566 30.4855 20.1566C28.3727 20.1566 26.2509 20.1142 24.1381 20.0887H23.6055C23.6274 19.6821 23.7425 19.285 23.9428 18.9256C24.2358 18.3738 24.5465 17.8305 24.8306 17.2956C24.897 17.2101 24.9745 17.1331 25.0614 17.0664C25.238 17.2171 25.4041 17.3788 25.5585 17.5503C25.8677 17.9271 26.2522 18.2413 26.6896 18.4745C27.127 18.7077 27.6086 18.8553 28.1063 18.9087C28.8875 19.036 29.6776 19.1634 30.4589 19.2567C31.2401 19.3501 31.8615 19.3926 32.5628 19.452L33.0599 19.5199H33.4239L34.0098 19.5878H34.3738L34.9775 19.6897H35.4391L36.1138 19.7576H36.6642L37.7383 19.8255H38.1023L38.6882 19.885H39.2475L39.9222 19.9529H40.3838L40.4548 20.0208" fill="white"/>
<path d="M57.5886 54.1433L56.7008 50.4079H52.6705L51.7827 54.1433H48.8887L52.7326 39.2949H56.6387L60.4826 54.1433H57.5886ZM56.1682 47.9714L55.3426 44.533C55.2952 44.3236 55.1857 43.8001 55.0141 42.9625C54.8425 42.1248 54.7389 41.5588 54.7034 41.2645C54.6146 41.8305 54.4992 42.4701 54.3572 43.1832C54.2151 43.8963 53.8423 45.4924 53.2386 47.9714H56.1593H56.1682Z" fill="white"/>
<path d="M67.1875 39.3538H71.1291C72.3866 39.2453 73.6438 39.5639 74.6801 40.2537C75.0724 40.6202 75.3747 41.0654 75.565 41.5573C75.7554 42.0492 75.8291 42.5753 75.7809 43.0977C75.8101 43.852 75.6096 44.5982 75.2038 45.2456C75.0316 45.5175 74.8008 45.7512 74.5268 45.9313C74.2528 46.1113 73.9419 46.2335 73.6148 46.2899V46.3917C74.3803 46.5325 75.0584 46.9527 75.5057 47.5633C75.9266 48.2548 76.13 49.0477 76.0916 49.847C76.1619 50.9976 75.757 52.1287 74.9641 52.9967C74.5634 53.3831 74.0819 53.6843 73.551 53.8803C73.0202 54.0764 72.452 54.1629 71.8837 54.1343H67.1875V39.3538ZM69.8951 45.2966H71.2179C71.4543 45.3206 71.6934 45.2908 71.9156 45.2096C72.1377 45.1285 72.3367 44.9983 72.4962 44.8296C72.7652 44.4193 72.8896 43.9373 72.8513 43.4543C72.8753 43.2176 72.85 42.9787 72.7769 42.7513C72.7037 42.524 72.5842 42.3128 72.4252 42.1299C72.0449 41.8394 71.5596 41.7051 71.0758 41.7564H69.8951V45.3305V45.2966ZM69.8951 47.5888V51.7233H71.3421C71.5931 51.7421 71.8451 51.7042 72.078 51.6128C72.3108 51.5214 72.5179 51.3789 72.6826 51.1969C73.0127 50.7147 73.1657 50.1413 73.1176 49.5669C73.1176 48.2425 72.5258 47.5803 71.3421 47.5803H69.8951V47.5888Z" fill="white"/>
<path d="M82.3443 54.3471C81.6804 54.3747 81.019 54.2532 80.4131 53.9922C79.8073 53.7313 79.2738 53.3382 78.8555 52.8444C77.9344 51.6112 77.486 50.1121 77.586 48.5996C77.4949 47.0691 77.8977 45.5487 78.7401 44.2444C79.0917 43.7427 79.5714 43.3352 80.1338 43.0603C80.6961 42.7855 81.3225 42.6525 81.9537 42.6738C82.5347 42.6511 83.1131 42.7609 83.641 42.9942C84.1689 43.2274 84.6312 43.5774 84.9897 44.0152C85.7924 45.1134 86.1834 46.4387 86.0994 47.7761V49.2109H80.4445C80.4012 50.0053 80.6286 50.7918 81.0926 51.4521C81.295 51.693 81.5542 51.8847 81.8489 52.0115C82.1435 52.1384 82.4654 52.1969 82.7882 52.1822C83.7897 52.1503 84.7629 51.8567 85.6023 51.3333V53.5491C84.6144 54.089 83.4905 54.3591 82.3532 54.3301L82.3443 54.3471ZM81.9448 44.7198C81.7368 44.7265 81.5347 44.7869 81.3596 44.8945C81.1846 45.0021 81.0432 45.1529 80.9505 45.3311C80.6432 45.9214 80.488 46.5734 80.4978 47.2328H83.3563C83.3826 46.5894 83.2487 45.9493 82.9657 45.365C82.8779 45.1778 82.736 45.0184 82.5567 44.9057C82.3774 44.7929 82.1682 44.7313 81.9537 44.7283" fill="white"/>
<path d="M92.0531 52.0755C92.4947 52.0664 92.9297 51.9711 93.3314 51.7953V53.9008C92.7075 54.2451 91.9907 54.4047 91.2718 54.3592C90.8503 54.3943 90.4259 54.336 90.0318 54.1887C89.6376 54.0415 89.2843 53.8093 88.9992 53.5102C88.4504 52.7407 88.1906 51.8159 88.2624 50.8869V45.0121H87.1172V43.8065L88.5908 42.8387L89.3099 40.4531H91.0854V42.8812H93.2693V45.0121H91.1298V50.9549C91.0959 51.0909 91.095 51.2326 91.1272 51.369C91.1594 51.5054 91.2238 51.633 91.3155 51.742C91.4071 51.8509 91.5237 51.9384 91.6561 51.9977C91.7886 52.057 91.9335 52.0865 92.0797 52.084" fill="white"/>
<path d="M99.0841 52.0755C99.5257 52.0664 99.9608 51.9711 100.362 51.7953V53.9008C99.7385 54.2451 99.0217 54.4047 98.3029 54.3592C97.8813 54.3943 97.457 54.336 97.0628 54.1887C96.6687 54.0415 96.3153 53.8093 96.0303 53.5102C95.4814 52.7407 95.2217 51.8159 95.2934 50.8869V45.0121H94.166V43.8065L95.6397 42.8387L96.3587 40.4531H98.1342V42.8812H100.274V45.0121H98.1342V50.9548C98.1003 51.0909 98.0995 51.2326 98.1316 51.369C98.1638 51.5054 98.2282 51.633 98.3199 51.742C98.4116 51.8509 98.5281 51.9384 98.6605 51.9977C98.793 52.057 98.9379 52.0865 99.0841 52.084" fill="white"/>
<path d="M106.364 54.3471C105.7 54.3747 105.039 54.2532 104.433 53.9922C103.827 53.7313 103.293 53.3382 102.875 52.8444C101.954 51.6112 101.506 50.1121 101.606 48.5996C101.514 47.0691 101.917 45.5487 102.76 44.2444C103.111 43.7427 103.591 43.3352 104.153 43.0603C104.716 42.7855 105.342 42.6525 105.973 42.6738C106.554 42.6511 107.133 42.7609 107.661 42.9942C108.188 43.2274 108.651 43.5774 109.009 44.0152C109.818 45.1055 110.218 46.4245 110.146 47.7591V49.1939H104.491C104.447 49.9884 104.674 50.7751 105.139 51.4351C105.341 51.676 105.6 51.8677 105.895 51.9946C106.19 52.1214 106.512 52.1799 106.834 52.1653C107.836 52.1334 108.809 51.8397 109.649 51.3163V53.5321C108.661 54.072 107.537 54.3422 106.399 54.3131L106.364 54.3471ZM105.991 44.7028C105.783 44.7096 105.581 44.7699 105.406 44.8775C105.231 44.9851 105.089 45.136 104.997 45.3141C104.689 45.9043 104.534 46.5564 104.544 47.2158H107.403C107.428 46.5725 107.294 45.9325 107.012 45.3481C106.924 45.1608 106.782 45.0015 106.603 44.8887C106.424 44.7759 106.214 44.7144 106 44.7113" fill="white"/>
<path d="M117 42.6632C117.344 42.6638 117.685 42.7154 118.012 42.816L117.684 45.4223C117.434 45.3472 117.173 45.3127 116.912 45.3204C116.6 45.3053 116.291 45.3687 116.013 45.5043C115.736 45.64 115.501 45.843 115.331 46.093C114.921 46.775 114.729 47.5574 114.781 48.3427V54.1412H111.967V42.8754H114.284L114.577 44.6412H114.674C114.889 44.069 115.235 43.5498 115.686 43.1216C116.038 42.8226 116.494 42.6592 116.965 42.6632" fill="white"/>
<path d="M137.614 54.1445H134.019L132.51 46.3934C132.253 45.1552 132.087 43.9013 132.013 42.641L131.924 43.3881L131.445 46.4358L129.971 54.1445H126.376L123.57 39.3555H126.393L127.831 47.7008C127.968 48.5384 128.148 49.8515 128.373 51.64C128.551 49.8345 128.716 48.5441 128.87 47.7687L130.521 39.364H133.504L135.155 47.7687C135.374 49.0139 135.549 50.3128 135.679 51.6655C135.928 49.6676 136.108 48.3488 136.221 47.7093L137.561 39.364H140.411" fill="white"/>
<path d="M147.233 54.1444L146.674 52.6077H146.611C146.306 53.1572 145.864 53.6265 145.324 53.9746C144.807 54.2415 144.225 54.3705 143.637 54.3481C143.243 54.3624 142.852 54.2848 142.496 54.1221C142.14 53.9594 141.831 53.7165 141.596 53.4143C141.064 52.6655 140.802 51.7713 140.85 50.8674C140.812 50.3817 140.883 49.8937 141.059 49.4367C141.235 48.9797 141.512 48.5642 141.871 48.2186C142.745 47.5753 143.822 47.2369 144.925 47.2592L146.487 47.1998V46.3509C146.487 45.2981 146.011 44.7718 145.058 44.7718C144.188 44.8226 143.348 45.0952 142.625 45.5613L141.649 43.7021C142.788 43.0037 144.113 42.6351 145.466 42.6409C145.99 42.6068 146.516 42.6809 147.008 42.8582C147.5 43.0354 147.946 43.3116 148.316 43.6681C149.013 44.4832 149.362 45.5205 149.292 46.5716V54.1359L147.233 54.1444ZM144.765 52.2427C145.013 52.2459 145.258 52.1864 145.475 52.0701C145.692 51.9539 145.872 51.785 145.999 51.5805C146.332 51.0483 146.492 50.4339 146.461 49.8146V48.8638H145.573C145.313 48.8577 145.054 48.9011 144.812 48.9914C144.569 49.0818 144.348 49.2173 144.161 49.3902C143.831 49.7924 143.67 50.2979 143.709 50.8079C143.709 51.7361 144.055 52.2002 144.747 52.2002" fill="white"/>
<path d="M150.377 42.875H153.298L154.931 49.2338C155.129 50.0146 155.26 50.8096 155.322 51.6109H155.419C155.419 51.4496 155.419 51.1609 155.517 50.7619C155.615 50.3629 155.615 50.0233 155.65 49.7856C155.686 49.5479 156.174 47.2387 157.106 42.8835H160.071L156.698 54.9643C156.448 56.1444 155.885 57.2435 155.064 58.1564C154.705 58.4852 154.28 58.7406 153.815 58.907C153.349 59.0734 152.853 59.1473 152.357 59.1242C151.854 59.1313 151.352 59.0742 150.865 58.9544V56.6962C151.183 56.78 151.512 56.82 151.842 56.815C152.789 56.815 153.41 56.2208 153.706 55.0322L153.91 54.3276" fill="white"/>
<path d="M171.01 51.6989C171.452 51.6898 171.887 51.5945 172.288 51.4187V53.5242C171.664 53.8685 170.948 54.0281 170.229 53.9826C169.807 54.0177 169.383 53.9594 168.989 53.8121C168.595 53.6649 168.241 53.4327 167.956 53.1336C167.407 52.3641 167.148 51.4393 167.219 50.5103V44.6355H166.074V43.4554L167.548 42.4876L168.267 40.0596H170.042V42.4876H172.182V44.6185H170.042V50.5613C170.009 50.6973 170.008 50.839 170.04 50.9754C170.072 51.1119 170.136 51.2394 170.228 51.3484C170.32 51.4574 170.436 51.5448 170.569 51.6041C170.701 51.6634 170.846 51.6929 170.992 51.6904" fill="white"/>
<path d="M182.665 48.1218C182.761 49.6489 182.331 51.164 181.44 52.4346C180.77 53.2439 179.805 53.7811 178.738 53.9386C177.671 54.096 176.581 53.862 175.687 53.2835C174.96 52.766 174.405 52.0584 174.089 51.246C173.697 50.254 173.507 49.1992 173.53 48.1388C173.446 46.6354 173.873 45.1464 174.746 43.894C175.134 43.3927 175.644 42.9898 176.232 42.7205C176.82 42.4512 177.468 42.3236 178.12 42.3488C178.765 42.3297 179.406 42.463 179.985 42.7369C180.564 43.0108 181.064 43.417 181.44 43.9194C182.322 45.1688 182.755 46.6587 182.674 48.1643L182.665 48.1218ZM176.415 48.1643C176.37 49.0663 176.505 49.9682 176.815 50.8215C176.901 51.0828 177.073 51.3109 177.304 51.4727C177.536 51.6346 177.815 51.7217 178.102 51.7214C179.226 51.7214 179.792 50.5357 179.797 48.1643C179.846 47.2642 179.708 46.3637 179.389 45.5155C179.294 45.2617 179.119 45.0422 178.889 44.887C178.659 44.7318 178.384 44.6485 178.102 44.6485C177.82 44.6485 177.545 44.7318 177.315 44.887C177.084 45.0422 176.91 45.2617 176.815 45.5155C176.502 46.3651 176.367 47.2649 176.415 48.1643Z" fill="white"/>
<path d="M193.913 53.7734L190.975 41.1832H190.859C190.988 42.0694 191.057 42.9627 191.064 43.8574V53.7734H188.4V38.9844H192.839L195.502 50.6067H195.591L198.254 38.9844H202.737V53.7734H200.012V43.7471C200.014 42.8961 200.065 42.0459 200.163 41.2002H200.074L197.145 53.7734" fill="white"/>
<path d="M213.944 48.122C214.04 49.6491 213.61 51.1642 212.719 52.4347C212.049 53.2441 211.084 53.7813 210.017 53.9387C208.95 54.0962 207.86 53.8622 206.966 53.2837C206.239 52.7666 205.684 52.0588 205.369 51.2462C204.975 50.2543 204.786 49.1994 204.809 48.139C204.725 46.6356 205.152 45.1466 206.025 43.8941C206.413 43.3923 206.923 42.9891 207.511 42.7197C208.099 42.4503 208.747 42.323 209.399 42.349C210.045 42.3299 210.685 42.4632 211.264 42.7371C211.843 43.011 212.343 43.4172 212.719 43.9196C213.601 45.169 214.034 46.6589 213.953 48.1644L213.944 48.122ZM207.694 48.1644C207.649 49.0664 207.785 49.9684 208.094 50.8217C208.181 51.083 208.352 51.3111 208.584 51.4729C208.815 51.6347 209.094 51.7218 209.381 51.7216C210.506 51.7216 211.071 50.5359 211.077 48.1644C211.126 47.2643 210.987 46.3639 210.668 45.5157C210.573 45.2619 210.399 45.0424 210.168 44.8872C209.938 44.732 209.663 44.6487 209.381 44.6487C209.099 44.6487 208.824 44.732 208.594 44.8872C208.363 45.0424 208.189 45.2619 208.094 45.5157C207.781 46.3653 207.646 47.2651 207.694 48.1644Z" fill="white"/>
<path d="M220.95 42.2859C221.293 42.2866 221.634 42.3381 221.962 42.4387L221.633 45.045C221.383 44.9698 221.122 44.9353 220.861 44.9432C220.55 44.9281 220.24 44.9915 219.962 45.1271C219.685 45.2627 219.45 45.4657 219.281 45.7157C218.87 46.3977 218.679 47.1801 218.73 47.9655V53.7639H215.916V42.4981H218.233L218.553 44.2555H218.65C218.865 43.683 219.21 43.1637 219.662 42.7359C220.014 42.4368 220.47 42.2735 220.941 42.2774" fill="white"/>
<path d="M227.319 51.6989C227.76 51.6896 228.195 51.5943 228.597 51.4187V53.5242C227.973 53.8681 227.256 54.0276 226.537 53.9826C226.116 54.0177 225.692 53.9594 225.297 53.8122C224.903 53.6649 224.55 53.4327 224.265 53.1337C223.715 52.3644 223.456 51.4394 223.528 50.5103V44.6355H222.383V43.4554L223.856 42.4876L224.558 40.0596H226.333V42.4876H228.473V44.6185H226.333V50.5613C226.297 50.7008 226.295 50.8465 226.328 50.9867C226.362 51.127 226.429 51.2577 226.525 51.3684C226.621 51.4792 226.743 51.5668 226.881 51.6242C227.018 51.6816 227.169 51.7072 227.319 51.6989Z" fill="white"/>
<path d="M238.733 42.5276V44.1067L237.322 44.4123C237.615 44.9633 237.756 45.5772 237.73 46.1951C237.794 47.2203 237.43 48.2277 236.718 48.9967C236.345 49.344 235.901 49.6131 235.413 49.7871C234.926 49.961 234.406 50.0359 233.886 50.007C233.623 50.0186 233.36 49.9928 233.105 49.9306C232.967 50.0474 232.839 50.1752 232.723 50.3126C232.604 50.4642 232.542 50.6495 232.546 50.839C232.546 51.3087 232.972 51.5436 233.824 51.5436H235.529C235.948 51.5174 236.368 51.5723 236.765 51.705C237.162 51.8377 237.526 52.0456 237.837 52.3162C238.128 52.6339 238.349 53.0042 238.488 53.4052C238.627 53.8062 238.68 54.2298 238.645 54.6508C238.678 55.2249 238.572 55.7986 238.333 56.3263C238.094 56.8539 237.73 57.3209 237.269 57.6901C236.117 58.4647 234.722 58.8364 233.318 58.7428C232.24 58.7995 231.174 58.4997 230.3 57.8939C229.945 57.6125 229.665 57.2553 229.481 56.8512C229.298 56.4472 229.216 56.0075 229.243 55.5677C229.233 54.9649 229.447 54.3783 229.847 53.9122C230.283 53.4159 230.864 53.0553 231.516 52.8765C231.165 52.7498 230.857 52.5323 230.628 52.2482C230.397 51.9648 230.275 51.6142 230.282 51.255C230.28 51.044 230.316 50.8344 230.389 50.6352C230.461 50.4464 230.563 50.269 230.69 50.1089C230.931 49.841 231.199 49.5965 231.489 49.3787C230.975 49.0653 230.572 48.6092 230.335 48.0713C230.046 47.4579 229.901 46.7915 229.909 46.1187C229.839 45.0748 230.203 44.0468 230.921 43.2577C231.307 42.9054 231.765 42.6336 232.266 42.4597C232.767 42.2857 233.301 42.2135 233.833 42.2474C234.11 42.2513 234.386 42.2768 234.659 42.3238C234.899 42.3571 235.137 42.4082 235.369 42.4766L238.733 42.5276ZM231.818 55.3639C231.805 55.5554 231.838 55.7471 231.913 55.9249C231.988 56.1026 232.105 56.262 232.253 56.3912C232.612 56.6498 233.056 56.7764 233.504 56.7478C234.18 56.7936 234.852 56.6299 235.422 56.2808C235.628 56.1339 235.794 55.9413 235.906 55.7195C236.017 55.4976 236.07 55.2533 236.061 55.0074C236.079 54.8421 236.058 54.675 235.998 54.5189C235.937 54.3629 235.841 54.2222 235.715 54.1075C235.325 53.8937 234.875 53.8016 234.428 53.8443H233.061C232.89 53.8423 232.721 53.878 232.567 53.9487C232.413 54.0194 232.278 54.1231 232.173 54.2518C231.924 54.5721 231.802 54.9659 231.827 55.3639H231.818ZM232.714 46.1357C232.714 47.4657 233.105 48.1308 233.886 48.1308C234.667 48.1308 235.049 47.4601 235.031 46.1187C235.031 44.7434 234.65 44.0557 233.886 44.0557C233.123 44.0557 232.711 44.766 232.652 46.1866" fill="white"/>
<path d="M245.928 53.7733L245.369 52.2366H245.307C245.001 52.7861 244.559 53.2554 244.019 53.6035C243.505 53.8693 242.926 53.9983 242.342 53.977C241.946 53.9927 241.553 53.9158 241.195 53.753C240.838 53.5903 240.528 53.3466 240.291 53.0432C239.759 52.2944 239.498 51.4002 239.545 50.4963C239.507 50.0106 239.578 49.5226 239.754 49.0656C239.93 48.6086 240.207 48.1931 240.566 47.8475C241.433 47.1939 242.507 46.8434 243.611 46.8542L245.174 46.7948V46.0052C245.174 44.9525 244.697 44.4262 243.744 44.4262C242.874 44.4766 242.034 44.7492 241.312 45.2157L240.335 43.3565C241.484 42.6411 242.826 42.2633 244.197 42.2698C244.721 42.2357 245.247 42.3098 245.739 42.4871C246.23 42.6643 246.676 42.9405 247.047 43.297C247.746 44.1143 248.095 45.1551 248.023 46.209V53.7733H245.928ZM243.513 51.8716C243.762 51.8748 244.007 51.8153 244.223 51.699C244.44 51.5828 244.621 51.4139 244.747 51.2094C245.076 50.6613 245.225 50.0311 245.174 49.4011V48.4927H244.286C244.026 48.4866 243.767 48.53 243.525 48.6203C243.282 48.7107 243.061 48.8462 242.874 49.0191C242.544 49.4213 242.383 49.9268 242.422 50.4368C242.422 51.365 242.768 51.8291 243.46 51.8291" fill="white"/>
<path d="M258.743 42.5276V44.1067L257.332 44.4123C257.625 44.9633 257.766 45.5772 257.74 46.1951C257.804 47.2203 257.44 48.2277 256.728 48.9967C256.355 49.344 255.911 49.6131 255.423 49.7871C254.936 49.961 254.416 50.0359 253.896 50.007C253.633 50.0186 253.37 49.9928 253.115 49.9306C252.977 50.0474 252.849 50.1752 252.733 50.3126C252.614 50.4642 252.552 50.6495 252.556 50.839C252.556 51.3087 252.982 51.5436 253.834 51.5436H255.538C255.958 51.5174 256.378 51.5723 256.775 51.705C257.171 51.8377 257.536 52.0456 257.847 52.3162C258.138 52.6339 258.359 53.0042 258.498 53.4052C258.637 53.8062 258.69 54.2298 258.654 54.6508C258.688 55.2249 258.581 55.7986 258.343 56.3263C258.104 56.8539 257.739 57.3209 257.278 57.6901C256.127 58.4647 254.732 58.8364 253.328 58.7428C252.25 58.7995 251.184 58.4997 250.309 57.8939C249.955 57.6125 249.675 57.2553 249.491 56.8512C249.308 56.4472 249.226 56.0075 249.253 55.5677C249.243 54.9649 249.457 54.3783 249.857 53.9122C250.293 53.4159 250.874 53.0553 251.526 52.8765C251.175 52.7498 250.867 52.5323 250.638 52.2482C250.407 51.9648 250.285 51.6142 250.292 51.255C250.29 51.044 250.326 50.8344 250.398 50.6352C250.471 50.4464 250.573 50.269 250.7 50.1089C250.941 49.841 251.208 49.5965 251.499 49.3787C250.984 49.0653 250.582 48.6092 250.345 48.0713C250.056 47.4579 249.91 46.7915 249.919 46.1187C249.849 45.0748 250.213 44.0468 250.931 43.2577C251.316 42.9054 251.774 42.6336 252.276 42.4597C252.777 42.2857 253.311 42.2135 253.843 42.2474C254.12 42.2513 254.396 42.2768 254.668 42.3238C254.909 42.3571 255.146 42.4082 255.379 42.4766L258.743 42.5276ZM251.828 55.3639C251.815 55.5554 251.848 55.7471 251.923 55.9249C251.998 56.1026 252.114 56.262 252.263 56.3912C252.622 56.6498 253.066 56.7764 253.514 56.7478C254.189 56.7936 254.862 56.6299 255.432 56.2808C255.638 56.1339 255.804 55.9413 255.916 55.7195C256.027 55.4976 256.08 55.2533 256.071 55.0074C256.082 54.851 256.058 54.6941 256 54.5476C255.941 54.401 255.851 54.2683 255.734 54.1584C255.344 53.9446 254.894 53.8526 254.446 53.8952H253.07C252.9 53.8932 252.731 53.929 252.577 53.9997C252.423 54.0703 252.288 54.1741 252.183 54.3027C251.934 54.6231 251.812 55.0168 251.836 55.4149L251.828 55.3639ZM252.724 46.1866C252.724 47.5167 253.115 48.1817 253.896 48.1817C254.677 48.1817 255.059 47.511 255.041 46.1696C255.041 44.7943 254.659 44.1067 253.896 44.1067C253.133 44.1067 252.742 44.8 252.724 46.1866Z" fill="white"/>
<path d="M264.499 53.976C263.843 53.997 263.19 53.8722 262.593 53.6115C261.995 53.3508 261.469 52.9612 261.055 52.4733C260.131 51.2413 259.679 49.742 259.777 48.2285C259.686 46.698 260.088 45.1776 260.931 43.8733C261.282 43.3716 261.762 42.9641 262.324 42.6892C262.887 42.4144 263.513 42.2814 264.144 42.3027C264.725 42.28 265.304 42.3898 265.832 42.6231C266.36 42.8563 266.822 43.2063 267.18 43.6441C267.983 44.7423 268.374 46.0676 268.29 47.405V48.8398H262.626C262.583 49.6342 262.81 50.4207 263.274 51.081C263.477 51.3219 263.736 51.5136 264.031 51.6405C264.325 51.7673 264.647 51.8258 264.97 51.8111C265.972 51.7792 266.945 51.4856 267.784 50.9622V53.178C266.796 53.7179 265.672 53.9881 264.535 53.959L264.499 53.976ZM264.127 44.3487C263.918 44.3545 263.716 44.4145 263.541 44.5222C263.365 44.6299 263.224 44.7813 263.132 44.96C262.824 45.5501 262.669 46.2023 262.68 46.8617H265.494C265.52 46.2183 265.386 45.5783 265.103 44.9939C265.015 44.8067 264.873 44.6473 264.694 44.5346C264.515 44.4218 264.306 44.3602 264.091 44.3572" fill="white"/>
<path d="M104.966 60.8477L105.703 61.2892C105.703 61.2892 106.591 61.4675 106.147 60.8053C106.147 60.8053 96.1863 55.1936 84.2728 55.4229C72.3593 55.6521 63.2421 57.8509 65.6302 61.3656C65.6302 61.3656 67.0594 62.9617 70.1665 61.0515C73.7708 58.8272 78.3959 57.5707 83.7135 56.8746C83.7135 56.8746 93.1946 55.6436 104.957 60.8308" fill="#FDB717"/>
</g>
<defs>
<clipPath id="clip0_910_5781">
<rect width="324" height="62" fill="white"/>
</clipPath>
</defs>
</svg>
