<?xml version="1.0" encoding="UTF-8"?> <svg xmlns="http://www.w3.org/2000/svg" width="307" height="84" viewBox="0 0 307 84" fill="none"><path d="M16.1275 83.4046H10.7682V70.9507H10.7172L6.8041 83.4046H1.44479L0.134766 59.3474H5.5961V73.3325H5.64714L9.96859 59.3474H14.8175V73.3325H14.8685L19.1389 59.3474H24.7874L16.1275 83.4046Z" fill="black"></path><path d="M29.5682 64.0261H24.5832L25.3148 59.3474H30.2998L29.5682 64.0261Z" fill="black"></path><path d="M24.294 65.9146H29.279L26.5568 83.4046H21.5718L24.294 65.9146Z" fill="black"></path><path d="M34.0598 77.722L34.0598 77.705L34.0768 77.722H34.0598Z" fill="black"></path><path d="M34.0598 77.722C34.0623 78.428 34.2153 78.9501 34.5191 79.3383C34.8254 79.6446 35.2677 79.7806 35.8292 79.7806C37.1392 79.7806 37.3263 78.6237 37.3263 78.2154C37.3263 77.1045 36.3593 76.8943 34.8577 76.568L34.8485 76.566C34.6512 76.5231 34.4446 76.4782 34.2299 76.429L34.1601 76.413C33.213 76.1972 30.6741 75.6185 30.6741 71.8864C30.6741 66.8674 34.0258 65.4893 37.1562 65.4893C39.9294 65.4893 43.3151 66.3059 43.0259 71.0187H38.5684C38.6194 70.3381 38.5003 69.9128 38.2111 69.6236C37.8878 69.2833 37.4455 69.1812 37.0542 69.1812C36.3906 69.1812 35.659 69.5555 35.659 70.5933C35.659 71.5291 36.1354 71.8013 36.782 71.9034C40.4739 72.5839 42.3114 73.6558 42.3114 77.3817C42.3114 81.431 39.7083 83.8809 35.7101 83.8809C32.8858 83.8809 29.3811 82.9792 29.4831 77.722H34.0598Z" fill="black"></path><path d="M53.5233 72.5329C53.5403 71.6993 53.4382 71.1548 53.166 70.8316C52.9108 70.4573 52.4855 70.3212 51.907 70.3212C49.7292 70.3212 49.1508 74.1492 49.1508 75.7995C49.1508 77.4498 49.423 79.0151 50.8692 79.0151C52.2302 79.0151 52.7917 77.4328 53.0639 76.4461H57.8617C57.011 81.431 54.6122 83.8639 50.8181 83.8639C45.2717 83.8639 44.1658 79.1512 44.1658 75.8676C44.1658 69.8788 47.0581 65.4723 52.0601 65.4723C55.701 65.4723 58.4062 67.65 58.3211 72.5329H53.5233Z" fill="black"></path><path fill-rule="evenodd" clip-rule="evenodd" d="M65.6709 83.8639C62.064 83.8639 59.1377 81.5331 59.1377 75.6634H59.1207C59.1207 70.0489 61.8429 65.4723 67.2021 65.4723C71.0472 65.4723 73.5652 67.8372 73.5652 73.1284C73.5652 77.62 71.7107 83.8639 65.6709 83.8639ZM66.8278 70.3212C64.8373 70.3212 64.1227 74.3534 64.1227 76.1738C64.1227 77.603 64.4799 79.0151 65.8921 79.0151C67.8657 79.0151 68.5802 75.136 68.5802 73.6048C68.5802 71.5121 68.1719 70.3212 66.8278 70.3212Z" fill="black"></path><path d="M77.053 65.9146H81.8678L81.4935 68.1094H81.5446C82.4973 66.5271 84.0115 65.4553 85.6108 65.4553C87.9076 65.4553 89.8812 66.7313 89.8812 70.2021C89.8812 70.9847 89.7281 72.2607 89.5239 73.5367L87.9416 83.4045H82.9397L84.2327 75.3912C84.2772 75.0991 84.3304 74.7912 84.3835 74.4842C84.5127 73.7364 84.641 72.9932 84.641 72.4988C84.641 71.393 84.0285 70.8145 83.2289 70.8145C81.6467 70.8145 81.1022 72.3288 80.813 74.1492L79.3498 83.4216H74.3478L77.07 65.9316L77.053 65.9146Z" fill="black"></path><path d="M95.3596 77.722L95.3596 77.705L95.3936 77.722H95.3596Z" fill="black"></path><path d="M95.3596 77.722C95.3621 78.428 95.5151 78.9501 95.819 79.3383C96.1252 79.6446 96.5675 79.7806 97.129 79.7806C98.439 79.7806 98.6262 78.6237 98.6262 78.2154C98.6262 77.1045 97.6591 76.8943 96.1575 76.568L96.1482 76.566C95.951 76.5231 95.7445 76.4782 95.5297 76.429L95.4599 76.413C94.5128 76.1972 91.9739 75.6185 91.9739 71.8864C91.9739 66.8674 95.3256 65.4893 98.456 65.4893C101.229 65.4893 104.615 66.3059 104.326 71.0187H99.8681C99.9192 70.3381 99.7831 69.9128 99.5109 69.6236C99.1876 69.2833 98.7452 69.1812 98.354 69.1812C97.6904 69.1812 96.9588 69.5555 96.9588 70.5933C96.9588 71.5291 97.4352 71.8013 98.0817 71.9034C101.774 72.5839 103.628 73.6558 103.628 77.3817C103.628 81.431 101.025 83.8809 97.0269 83.8809C94.2027 83.8809 90.6979 82.9792 90.7999 77.722H95.3596Z" fill="black"></path><path d="M112.866 64.0261H107.882L108.613 59.3474H113.598L112.866 64.0261Z" fill="black"></path><path d="M112.577 65.9146L109.855 83.4046H104.853L107.575 65.9146H112.577Z" fill="black"></path><path d="M120.25 65.9146H115.419L115.453 65.9316L112.73 83.4216H117.732L119.196 74.1492C119.485 72.3288 120.029 70.8145 121.611 70.8145C122.411 70.8145 123.024 71.393 123.024 72.4988C123.024 72.9934 122.895 73.7361 122.766 74.4842C122.713 74.7912 122.66 75.0991 122.615 75.3912L121.322 83.4045H126.324L127.906 73.5367C128.111 72.2607 128.264 70.9847 128.264 70.2021C128.264 66.7313 126.29 65.4553 123.993 65.4553C122.411 65.4553 120.88 66.5271 119.927 68.1094H119.876L120.25 65.9146Z" fill="black"></path><path fill-rule="evenodd" clip-rule="evenodd" d="M141.602 83.4046H135.954L146.383 59.3474H151.845L154.652 83.4046H149.191L148.884 79.9848H142.998L141.602 83.4046ZM147.863 67.616H147.812L145.005 74.8297H148.476L147.863 67.616Z" fill="black"></path><path d="M166.936 65.9146H164.196L165.081 60.6234H160.096L159.211 65.9146H157.051L156.336 70.0149H158.565L157.408 77.1776L157.394 77.2701L157.373 77.4083C157.355 77.5205 157.337 77.63 157.319 77.738C157.225 78.313 157.136 78.8519 157.136 79.5765C157.136 80.8526 157.646 82.2306 158.497 82.8771C159.45 83.5917 160.59 83.5917 161.644 83.5917C162.563 83.5236 163.465 83.3535 164.35 83.1493L165.115 78.3175C165.064 78.322 165.011 78.327 164.957 78.3324L164.855 78.3427C164.515 78.3773 164.099 78.4196 163.482 78.4196C162.699 78.4196 162.478 77.9602 162.478 77.3818C162.478 76.8665 162.573 76.3375 162.665 75.8193L162.666 75.8165L162.699 75.6294L163.584 70.0149H166.238L166.936 65.9146Z" fill="black"></path><path d="M169.726 59.3474H174.728L173.367 68.1264H173.418C174.319 66.408 175.919 65.4723 177.297 65.4723C179.594 65.4723 181.567 66.7483 181.567 70.185C181.567 70.9507 181.414 72.2437 181.21 73.5197L179.628 83.4216H174.626L175.919 75.3741C175.965 75.067 176.02 74.746 176.075 74.4278C176.202 73.6885 176.327 72.9644 176.327 72.4648C176.327 71.359 175.715 70.7805 174.915 70.7805C173.316 70.7805 172.788 72.2947 172.482 74.1322L171.019 83.4216H166.017L169.726 59.3644V59.3474Z" fill="black"></path><path d="M191.248 59.3474H186.246L182.52 83.4046H187.505L191.248 59.3474Z" fill="black"></path><path fill-rule="evenodd" clip-rule="evenodd" d="M199.738 78.3345C199.482 78.947 198.853 79.5935 197.781 79.5935C196.216 79.5935 195.739 78.0283 195.739 76.1738H205.063C205.284 75.102 205.318 74.0811 205.318 73.1454C205.318 67.616 201.813 65.4723 198.904 65.4723C195.654 65.4723 191.061 68.0924 191.061 76.1398C191.061 80.3932 192.932 83.8639 197.577 83.8639C203.017 83.8639 204.128 79.8635 204.509 78.491C204.524 78.4342 204.539 78.3819 204.552 78.3345H199.738ZM196.165 72.7031C196.539 70.8316 197.424 69.7427 198.751 69.7427C200.01 69.7427 200.639 70.7975 200.639 72.1246C200.639 72.2947 200.622 72.5329 200.588 72.7031H196.165Z" fill="black"></path><path d="M217.466 65.9146H214.744L215.628 60.6234H210.626L209.742 65.9146H207.581L206.883 70.0149H209.095L207.938 77.1776C207.927 77.2519 207.916 77.3247 207.905 77.3963C207.887 77.5127 207.868 77.6261 207.85 77.738C207.755 78.313 207.666 78.8519 207.666 79.5765C207.666 80.8526 208.176 82.2306 209.027 82.8771C209.98 83.5917 211.12 83.5917 212.175 83.5917C213.093 83.5236 213.995 83.3535 214.88 83.1493L215.628 78.3175L215.563 78.3234L215.512 78.3283L215.368 78.3427C215.028 78.3773 214.612 78.4196 213.995 78.4196C213.212 78.4196 212.991 77.9602 212.991 77.3818C212.991 76.8661 213.086 76.3368 213.179 75.8182L213.179 75.8154L213.212 75.6294L214.097 70.0149H216.751L217.466 65.9146Z" fill="black"></path><path d="M224.663 64.0261H219.678L220.409 59.3474H225.394L224.663 64.0261Z" fill="black"></path><path d="M219.388 65.9146H224.373L221.651 83.4046H216.666L219.388 65.9146Z" fill="black"></path><path d="M234.224 70.8316C234.496 71.1548 234.598 71.6993 234.581 72.5329H239.379C239.464 67.65 236.759 65.4723 233.118 65.4723C228.133 65.4723 225.224 69.8788 225.224 75.8676C225.224 79.1512 226.33 83.8639 231.876 83.8639C235.653 83.8639 238.052 81.431 238.92 76.4461H234.122C233.85 77.4328 233.288 79.0151 231.927 79.0151C230.481 79.0151 230.209 77.4498 230.209 75.7995C230.209 74.1492 230.787 70.3212 232.965 70.3212C233.544 70.3212 233.969 70.4573 234.224 70.8316Z" fill="black"></path><path d="M266.224 74.3023L266.227 74.2853L266.261 74.3023H266.224Z" fill="black"></path><path d="M260.799 74.3023H266.224C265.897 76.7854 264.474 84 256.988 84C251.765 84 249.23 79.4914 249.23 73.0433C249.23 65.2171 252.871 58.7689 259.013 58.7689C263.028 58.7689 266.618 61.0828 266.72 68.3135H261.463C261.514 66.0507 260.697 64.7577 258.996 64.7577C255.916 64.7577 254.811 69.5045 254.811 72.9242C254.811 74.9148 255.168 78.0283 257.72 78.0283C259.455 78.0283 260.442 76.429 260.799 74.3023Z" fill="black"></path><path d="M275.941 59.3474H270.939L267.213 83.4046H272.198L275.941 59.3474Z" fill="black"></path><path d="M288.548 83.4046H283.7L284.108 81.2098H284.057C282.968 82.9282 281.522 83.8639 279.837 83.8639C277.558 83.8639 275.669 82.5539 275.669 79.1852C275.669 78.0622 275.903 76.6025 276.641 71.9953L276.642 71.9898L276.648 71.9574C276.904 70.3588 277.22 68.3833 277.609 65.9146H282.611L281.148 75.0339C280.943 75.9526 280.943 76.8543 280.943 76.8543C280.943 77.9262 281.658 78.5046 282.389 78.5046C284.3 78.5046 284.659 76.1416 284.975 74.0639C285.03 73.6987 285.085 73.3424 285.146 73.0092L286.286 65.8976H291.288L288.565 83.3875L288.548 83.4046Z" fill="black"></path><path fill-rule="evenodd" clip-rule="evenodd" d="M296.136 83.4046H291.373L295.116 59.3474H300.118L298.825 67.6159H298.875C299.709 66.1868 301.121 65.4552 302.516 65.4552C304.286 65.4552 307.008 66.7312 307.008 72.4989C307.008 75.6123 305.953 83.8469 300.458 83.8469C298.944 83.8469 297.276 83.4556 296.562 81.1588H296.511L296.136 83.4046ZM302.023 73.1964C302.023 71.444 301.411 70.2531 300.152 70.3211C298.11 70.3211 297.446 73.979 297.446 76.3099C297.446 77.6709 298.042 79.015 299.148 79.015C301.172 79.015 302.023 75.7654 302.023 73.1964Z" fill="black"></path><path d="M91.7355 24.8609C91.3102 12.8664 107.286 -2.08853 155.128 0.242328C124.044 0.242328 99.3406 9.48068 99.3406 23.2276C99.3406 36.9746 114.023 54.0391 178.964 48.3396C149.956 55.077 92.7734 53.869 91.7355 24.8439" fill="black"></path><path d="M136.141 42.1807L136.144 42.1697L136.855 42.2828C137.06 41.6533 137.298 40.4283 135.239 40.1221C133.827 39.9179 132.891 40.7006 132.568 41.5852C132.194 42.589 132.959 42.9804 133.317 43.1165L134.423 43.5588C135.307 43.9161 135.528 44.1543 135.307 44.7497C135.001 45.5664 133.98 45.5664 133.402 45.4814C132.653 45.3793 131.905 44.9539 132.279 43.9161L131.53 43.797C131.343 44.3244 131.258 44.8178 131.598 45.3282C131.785 45.6004 132.092 45.9917 133.181 46.1449C134.184 46.298 135.613 46.1109 136.124 44.7668C136.464 43.8651 136.056 43.3376 135.358 43.0484L133.81 42.4359C133.504 42.2998 133.198 42.0956 133.385 41.6023C133.708 40.7346 134.61 40.7346 135.103 40.8026C135.781 40.9043 136.425 41.2927 136.144 42.1697L136.107 42.1637L136.141 42.1807Z" fill="black"></path><path d="M138.625 41.5172L138.897 40.7175L139.629 40.8026L139.356 41.6022L138.625 41.5172Z" fill="black"></path><path d="M137.706 46.5702L136.975 46.4852L138.37 42.2828L139.101 42.3679L137.706 46.5702Z" fill="black"></path><path d="M143.61 44.1373L142.743 47.0285L142.028 46.9786L142.81 44.3585C143.031 43.6269 142.929 43.2356 142.215 43.1675C141.806 43.1335 141.007 43.3376 140.649 44.4946L139.952 46.8084L139.22 46.7574L140.496 42.504L141.177 42.555L141.007 43.1505C141.228 42.9464 141.789 42.47 142.538 42.538C143.202 42.589 143.967 42.9293 143.61 44.1373Z" fill="black"></path><path d="M147.812 44.4095C147.88 43.831 147.642 43.4738 147.03 43.4397C146.128 43.3887 145.617 44.2394 145.413 44.988C145.226 45.7196 145.158 46.6383 146.162 46.6893C146.655 46.7234 147.166 46.3831 147.472 45.7196L148.169 45.7536C147.914 46.4341 147.234 47.3699 145.975 47.3018C144.767 47.2508 144.273 46.298 144.614 45.056C144.971 43.729 145.89 42.7081 147.319 42.7762C148.459 42.8273 148.663 43.6779 148.527 44.4265L147.829 44.3925L147.812 44.4095Z" fill="black"></path><path fill-rule="evenodd" clip-rule="evenodd" d="M150.943 46.8595C151.64 46.8764 152.168 46.366 152.27 46.0428V46.0598H153.001C152.916 46.264 152.576 46.8595 151.947 47.2167C151.725 47.3528 151.402 47.4889 150.704 47.4889C149.497 47.4719 148.986 46.5362 149.275 45.2942C149.582 43.9501 150.483 42.8953 151.912 42.9293C153.171 42.9463 153.546 43.9501 153.188 45.4813L150.024 45.4133C149.803 46.315 150.109 46.8424 150.943 46.8595ZM151.657 43.5928C150.994 43.5758 150.313 44.1883 150.16 44.8518L152.559 44.9029C152.678 44.2394 152.542 43.6099 151.657 43.5928Z" fill="black"></path><path d="M158.497 47.3698L159.313 43.2356H157.952L158.071 42.6741C159.024 42.589 159.432 42.487 159.858 41.5342H160.436L159.296 47.3698H158.497Z" fill="black"></path><path fill-rule="evenodd" clip-rule="evenodd" d="M165.404 44.5456C165.098 45.0049 164.486 45.2772 163.941 45.2942H163.924C162.852 45.3452 162.223 44.6477 162.427 43.4737C162.614 42.4189 163.431 41.4491 164.656 41.3981C166.51 41.313 166.391 43.0824 166.221 44.0352C166.102 44.6647 165.54 47.3528 163.533 47.4209C162.155 47.4719 161.967 46.4851 162.07 45.9237L162.801 45.8896C162.733 46.4681 163.022 46.8254 163.618 46.8084C164.417 46.7744 164.962 46.0938 165.404 44.5456ZM163.192 43.4057C163.005 44.5286 163.669 44.6477 164.162 44.6306C164.537 44.6137 165.302 44.4095 165.506 43.2525C165.625 42.589 165.387 42.0105 164.554 42.0446C163.873 42.0786 163.329 42.623 163.192 43.4057Z" fill="black"></path><path d="M167.718 41.3471L171.733 41.1259L171.631 41.7724C170.951 42.4189 169.283 44.3755 168.45 47.0296L167.65 47.0806C168.092 45.4474 169.487 43.2866 170.797 41.9085L167.599 42.0787L167.701 41.3641L167.718 41.3471Z" fill="black"></path><path fill-rule="evenodd" clip-rule="evenodd" d="M174.898 40.7516C175.561 40.7006 176.463 41.0068 176.378 42.1978L175.68 42.2488C175.646 41.7384 175.425 41.3641 174.796 41.4151C173.639 41.5002 173.196 43.0824 173.111 43.7119C173.332 43.3887 173.792 42.9464 174.592 42.8953C175.306 42.8442 176.344 43.2185 176.157 44.6307C176.072 45.2262 175.867 45.6855 175.408 46.1449C175.051 46.5192 174.677 46.7574 173.86 46.8254C173.418 46.8595 172.805 46.7063 172.482 46.0768C172.21 45.5494 172.21 44.8348 172.312 44.0692C172.482 42.7762 173.162 40.8707 174.898 40.7516ZM174.404 43.5588C173.605 43.6269 173.145 44.2394 173.043 44.9369V44.9199C172.941 45.5494 173.23 46.2129 174.081 46.1449C174.779 46.0938 175.306 45.5154 175.408 44.7157C175.476 44.1883 175.306 43.4908 174.404 43.5588Z" fill="black"></path><path d="M158.326 20.8458L151.844 22.0027L156.642 16.8306L158.326 20.8458Z" fill="black"></path><path fill-rule="evenodd" clip-rule="evenodd" d="M104.121 21.169C104.121 11.012 126.171 2.79443 153.359 2.79443C180.546 2.79443 202.596 11.012 202.596 21.169C202.596 31.3261 180.546 39.5437 153.359 39.5437C126.171 39.5437 104.121 31.3261 104.121 21.169ZM168.16 28.8762C168.245 34.0823 174.455 35.0351 178.964 34.3205H178.947C187.181 33.0105 195.858 27.9404 196.913 26.7155L194.361 24.6058C192.847 25.6436 186.093 29.2335 181.244 30.4074C172.55 32.5001 171.189 28.9613 173.724 24.4697C175.306 21.6795 183.507 16.031 191.503 15.8438L192.2 11.9137H192.081C181.975 12.0328 168.024 19.2976 168.16 28.8762ZM159.109 23.8231L161.644 30.0331V30.0501L165.676 29.1994L159.177 12.6793L155.298 13.615C152.185 17.2049 138.54 32.1768 137.128 33.589C137.111 33.6059 137.094 33.657 137.094 33.657L141.84 33.9802L149.53 25.6436L159.109 23.8231ZM119.859 31.0539L127.481 20.0632L127.498 20.0462C127.498 20.0462 132.84 27.2259 134.116 28.8592L137.213 28.4679L154.226 8.52799L147.965 9.29362L135.784 24.1974L129.386 15.997L124.759 16.8136C124.112 17.7153 117.63 26.2731 117.63 26.2731C117.63 26.2731 113.224 21.5093 111.063 18.7531L106.639 20.5226L116.643 31.3942L119.859 31.0539Z" fill="black"></path></svg> 